<svg xmlns="http://www.w3.org/2000/svg" viewBox="0 0 200 200"><defs><style>.cls-1{fill:none;}.cls-2{fill:#5a463e;}</style></defs><g id="圖層_6" data-name="圖層 6"><path class="cls-1" d="M144.05,153.64,143,151.45c-.66-1.28-1.33-2.55-2.05-3.79q-.51-.89-1-1.77c-1.34,2.15-2.51,4.37-3.63,6.63l-.54,1.09-.27.56c-.08.18-.13.33-.2.49a5,5,0,0,0,1.49,5.57,4.92,4.92,0,0,0,7-.68,5.15,5.15,0,0,0,1.08-3.84,2.28,2.28,0,0,0-.1-.52,2.19,2.19,0,0,0-.14-.5l-.2-.49Z"/><path class="cls-1" d="M89.57,98.24,81.3,90.48a48.81,48.81,0,0,1-7.68-8.41.32.32,0,0,1,.08-.44.33.33,0,0,1,.33,0,49.33,49.33,0,0,1,9.07,6.9l8.47,7.55,3.16,2.85,3.49-3.49c-.27,0-.54-.1-.81-.17a.33.33,0,0,1-.23-.39.32.32,0,0,1,.23-.23,13.23,13.23,0,0,1,2-.36l7-7q-12-10.93-24-21.93l0-.05a1.31,1.31,0,0,1-.07-1.86l0,0,.35-.35.3-.31a2.68,2.68,0,0,0,.41-.53,2.94,2.94,0,0,0,.1-2.67,3.19,3.19,0,0,0-.38-.6c-.07-.09-.16-.17-.24-.27l-.35-.33L82.13,58c-.1-.08-.18-.17-.28-.24a3,3,0,0,0-.62-.36,3.05,3.05,0,0,0-1.43-.25,3,3,0,0,0-2,.9c-.08.07-.19.2-.3.32l-.33.36v0a1,1,0,0,1-1.47.07h0L71.49,55l-1.06-1c-.35-.32-.72-.65-1-.89A7.52,7.52,0,0,0,67.25,52a8.4,8.4,0,0,0-2.42-.49,7.78,7.78,0,0,0-2.45.31,7,7,0,0,0-2.22,1,3,3,0,0,0-.49.37,3.55,3.55,0,0,0-.47.4l-.43.44-.48.52-.48.53-.38.48a4.54,4.54,0,0,0-.36.5,2.75,2.75,0,0,0-.31.52,7,7,0,0,0-.81,2.3,8,8,0,0,0-.06,2.44,8.17,8.17,0,0,0,.71,2.33,7.73,7.73,0,0,0,1.41,2c.26.27.63.6,1,.92l1.06,1,4.21,3.83h0a1.28,1.28,0,0,1,.09,1.82h0l-.55.62-.28.3-.13.15-.1.11a3,3,0,0,0-.54,1A2.94,2.94,0,0,0,63,77.59a3.12,3.12,0,0,0,.31.49,6.65,6.65,0,0,0,.47.48l.3.29.27.25a3.27,3.27,0,0,0,.48.35,3,3,0,0,0,2.31.3,2.89,2.89,0,0,0,1.09-.52,12.39,12.39,0,0,0,1.07-1l2.31-2.38a28.47,28.47,0,0,1,4.93-4.48.32.32,0,0,1,.44.11.31.31,0,0,1,0,.31,28.29,28.29,0,0,1-4,5.3l-2.16,2.52-.54.63-.14.15-.17.19a4.35,4.35,0,0,1-.38.36,5.4,5.4,0,0,1-1.81,1,5.33,5.33,0,0,1-4.1-.39,5.5,5.5,0,0,1-.89-.59l-.35-.3-.31-.27a7.4,7.4,0,0,1-.7-.69,4.76,4.76,0,0,1-.62-.87,5.42,5.42,0,0,1,.51-6.09l.17-.21.12-.12-3.26-3-1-1c-.35-.32-.69-.63-1.09-1a9.79,9.79,0,0,1-1.85-2.65,10.42,10.42,0,0,1-.93-3.09,10.6,10.6,0,0,1,.09-3.23,9.71,9.71,0,0,1,1.09-3A6,6,0,0,1,55,54.7a7.85,7.85,0,0,1,.47-.66l.52-.62.48-.52.49-.53.58-.56a6,6,0,0,1,.61-.52,6.08,6.08,0,0,1,.66-.47,9.56,9.56,0,0,1,2.93-1.32,10.36,10.36,0,0,1,3.18-.35,10.82,10.82,0,0,1,3.13.68,10,10,0,0,1,2.75,1.62c.43.35.76.67,1.11,1l1,1,3.42,3.18a5.32,5.32,0,0,1,1-.75,5.25,5.25,0,0,1,2.31-.75,5.06,5.06,0,0,1,2.4.35,4.89,4.89,0,0,1,1.08.58c.17.12.33.25.49.38l.37.32.37.32c.15.15.3.29.44.44a5.17,5.17,0,0,1,.71,1,5.36,5.36,0,0,1,.65,2.41,5.29,5.29,0,0,1-.5,2.47,5.5,5.5,0,0,1-.47.81q11.63,10.52,23.18,21.09l55.17-55.17A94.45,94.45,0,0,0,30.11,163.53L92.6,101Z"/><path class="cls-1" d="M108.36,111.32l16.7,15.36,2.08,1.93,1,1,.52.49c.17.16.31.27.47.41a8.78,8.78,0,0,0,1,.73,9.14,9.14,0,0,0,1.08.55,7.38,7.38,0,0,0,2.36.64,8.28,8.28,0,0,0,8.27-4.34,7.7,7.7,0,0,0,.82-2.33,7.59,7.59,0,0,0,.09-2.47,8.07,8.07,0,0,0-.63-2.37,8.61,8.61,0,0,0-.56-1.09,8,8,0,0,0-.72-1,7.87,7.87,0,0,0-.85-.88l-1.05-1-2.11-1.89-4.2-3.81L115.86,96,113,93.37,101.4,105C103.73,107.08,106.05,109.19,108.36,111.32Z"/><path class="cls-1" d="M117.79,93.89l16.75,15.3,4.18,3.84,2.07,1.93c.35.32.7.63,1.05,1a11.05,11.05,0,0,1,1.07,1.2,12,12,0,0,1,.91,1.33,12.19,12.19,0,0,1,1.16,3,12.11,12.11,0,0,1,.25,3.18,11.63,11.63,0,0,1-.22,1.57,10.16,10.16,0,0,1-1.09,3,14.56,14.56,0,0,1-.85,1.35c-.35.4-.66.82-1,1.19a10.53,10.53,0,0,1-2.53,1.91,10.18,10.18,0,0,1-3,1.1,10.87,10.87,0,0,1-6.31-.48,11.5,11.5,0,0,1-1.47-.68,12.14,12.14,0,0,1-1.34-.91c-.2-.16-.44-.34-.61-.5l-.54-.47-1-.95-2.11-1.89-16.8-15.26q-3.54-3.21-7.06-6.45L36.47,169.89A94.45,94.45,0,0,0,169.89,36.47L115,91.35Zm28,59.55.28.63a3.58,3.58,0,0,1,.23.65,3.42,3.42,0,0,1,.18.68,7.21,7.21,0,0,1-1.07,5.44,6.68,6.68,0,0,1-4.9,2.93,5.86,5.86,0,0,1-1.45,0l-.73-.11-.72-.2a6.84,6.84,0,0,1-2.5-1.53,7.13,7.13,0,0,1-1.56-7.91c.1-.21.19-.44.29-.63l.28-.54.56-1.09a69.8,69.8,0,0,0,3.89-9h0a1.3,1.3,0,0,1,1.65-.82,1.35,1.35,0,0,1,.82.83c.44,1.38,1,2.72,1.55,4s1.17,2.62,1.8,3.91l1.1,2.18Z"/><path class="cls-2" d="M85.18,64.19a1.87,1.87,0,0,1-.2.29,4.65,4.65,0,0,1-.34.42l-.31.38-.09-2,.94.86a5.5,5.5,0,0,0,.47-.81,5.29,5.29,0,0,0,.5-2.47,5.36,5.36,0,0,0-.65-2.41,5.17,5.17,0,0,0-.71-1c-.14-.15-.29-.29-.44-.44L84,56.72l-.37-.32c-.16-.13-.32-.26-.49-.38A4.89,4.89,0,0,0,82,55.44a5.06,5.06,0,0,0-2.4-.35,5.25,5.25,0,0,0-2.31.75,5.32,5.32,0,0,0-1,.75l.76.7-1.48.06h0L76,57c.11-.12.21-.23.37-.38h0L73,53.41l-1-1c-.35-.32-.68-.64-1.11-1a10,10,0,0,0-2.75-1.62,10.82,10.82,0,0,0-3.13-.68,10.36,10.36,0,0,0-3.18.35,9.56,9.56,0,0,0-2.93,1.32,6.08,6.08,0,0,0-.66.47,6,6,0,0,0-.61.52l-.58.56-.49.53-.48.52-.52.62a7.85,7.85,0,0,0-.47.66,6,6,0,0,0-.42.69,9.71,9.71,0,0,0-1.09,3,10.6,10.6,0,0,0-.09,3.23,10.42,10.42,0,0,0,.93,3.09,9.79,9.79,0,0,0,1.85,2.65c.4.41.74.72,1.09,1l1,1,3.26,3,0,0,.28-.31.56-.61.08,1.83h0l-.94-.87-.12.12-.17.21a5.42,5.42,0,0,0-.51,6.09,4.76,4.76,0,0,0,.62.87,7.4,7.4,0,0,0,.7.69l.31.27.35.3a5.5,5.5,0,0,0,.89.59,5.33,5.33,0,0,0,4.1.39,5.4,5.4,0,0,0,1.81-1,4.35,4.35,0,0,0,.38-.36l.17-.19.14-.15.54-.63L73,77.05a28.29,28.29,0,0,0,4-5.3.31.31,0,0,0,0-.31.32.32,0,0,0-.44-.11,28.47,28.47,0,0,0-4.93,4.48l-2.31,2.38a12.39,12.39,0,0,1-1.07,1,2.89,2.89,0,0,1-1.09.52,3,3,0,0,1-2.31-.3,3.27,3.27,0,0,1-.48-.35l-.27-.25-.3-.29a6.65,6.65,0,0,1-.47-.48,3.12,3.12,0,0,1-.31-.49,2.94,2.94,0,0,1-.22-2.23,3,3,0,0,1,.54-1l.1-.11.13-.15.28-.3.55-.62h0a1.28,1.28,0,0,0-.09-1.82h0l-4.21-3.83-1.06-1c-.35-.32-.72-.65-1-.92a7.73,7.73,0,0,1-1.41-2,8.17,8.17,0,0,1-.71-2.33A8,8,0,0,1,56,58.88a7,7,0,0,1,.81-2.3,2.75,2.75,0,0,1,.31-.52,4.54,4.54,0,0,1,.36-.5l.38-.48.48-.53.48-.52.43-.44a3.55,3.55,0,0,1,.47-.4,3,3,0,0,1,.49-.37,7,7,0,0,1,2.22-1,7.78,7.78,0,0,1,2.45-.31,8.4,8.4,0,0,1,2.42.49,7.52,7.52,0,0,1,2.15,1.22c.31.24.68.57,1,.89l1.06,1,4.23,3.81h0a1,1,0,0,0,1.47-.07v0l.33-.36c.11-.12.22-.25.3-.32a3,3,0,0,1,2-.9,3.05,3.05,0,0,1,1.43.25,3,3,0,0,1,.62.36c.1.07.18.16.28.24l.35.34.35.33c.08.1.17.18.24.27a3.19,3.19,0,0,1,.38.6,2.94,2.94,0,0,1-.1,2.67,2.68,2.68,0,0,1-.41.53l-.3.31-.35.35,0,0a1.31,1.31,0,0,0,.07,1.86l0,.05q11.94,11,24,21.93l2-2Q96.8,74.71,85.18,64.19Z"/><path class="cls-2" d="M76,57l-.33.36h0l1.48-.06-.76-.7h0C76.21,56.75,76.11,56.86,76,57Z"/><path class="cls-2" d="M84.33,65.28l.31-.38a4.65,4.65,0,0,0,.34-.42,1.87,1.87,0,0,0,.2-.29l-.94-.86Z"/><polygon class="cls-2" points="62.53 73.27 62.45 71.44 61.89 72.05 61.61 72.36 61.58 72.39 62.52 73.25 62.53 73.27"/><path class="cls-2" d="M115.86,96l16.77,15.29,4.2,3.81,2.11,1.89,1.05,1a7.87,7.87,0,0,1,.85.88,8,8,0,0,1,.72,1,8.61,8.61,0,0,1,.56,1.09,8.07,8.07,0,0,1,.63,2.37,7.59,7.59,0,0,1-.09,2.47,7.7,7.7,0,0,1-.82,2.33,8.28,8.28,0,0,1-8.27,4.34,7.38,7.38,0,0,1-2.36-.64,9.14,9.14,0,0,1-1.08-.55,8.78,8.78,0,0,1-1-.73c-.16-.14-.3-.25-.47-.41l-.52-.49-1-1-2.08-1.93-16.7-15.36c-2.31-2.13-4.63-4.24-7-6.36l-2.18,2.18q3.52,3.24,7.06,6.45l16.8,15.26,2.11,1.89,1,.95.54.47c.17.16.41.34.61.5a12.14,12.14,0,0,0,1.34.91,11.5,11.5,0,0,0,1.47.68,11.18,11.18,0,0,0,9.29-.62,10.53,10.53,0,0,0,2.53-1.91c.39-.37.7-.79,1-1.19a14.56,14.56,0,0,0,.85-1.35,10.16,10.16,0,0,0,1.09-3,11.63,11.63,0,0,0,.22-1.57,12.11,12.11,0,0,0-.25-3.18,12.19,12.19,0,0,0-1.16-3,12,12,0,0,0-.91-1.33,11.05,11.05,0,0,0-1.07-1.2c-.35-.34-.7-.65-1.05-1L138.72,113l-4.18-3.84-16.75-15.3L115,91.35l-2,2Z"/><path class="cls-2" d="M91.57,96.06,83.1,88.51A49.33,49.33,0,0,0,74,81.61a.33.33,0,0,0-.33,0,.32.32,0,0,0-.08.44,48.81,48.81,0,0,0,7.68,8.41l8.27,7.76,3,2.8,2.13-2.13Z"/><path class="cls-2" d="M138.61,144c.44.62.85,1.25,1.25,1.89q.58-1,1.23-1.89Z"/><path class="cls-2" d="M142.64,146.8c-.57-1.32-1.11-2.66-1.55-4a1.35,1.35,0,0,0-.82-.83,1.3,1.3,0,0,0-1.65.82h0a69.8,69.8,0,0,1-3.89,9l-.56,1.09-.28.54c-.1.19-.19.42-.29.63a7.13,7.13,0,0,0,1.56,7.91,6.84,6.84,0,0,0,2.5,1.53l.72.2.73.11a5.86,5.86,0,0,0,1.45,0,6.68,6.68,0,0,0,4.9-2.93,7.21,7.21,0,0,0,1.07-5.44,3.42,3.42,0,0,0-.18-.68,3.58,3.58,0,0,0-.23-.65l-.28-.63-.29-.55-1.1-2.18C143.81,149.42,143.2,148.12,142.64,146.8Zm2,8.39a2.28,2.28,0,0,1,.1.52,5.15,5.15,0,0,1-1.08,3.84,4.92,4.92,0,0,1-7,.68,5,5,0,0,1-1.49-5.57c.07-.16.12-.31.2-.49l.27-.56.54-1.09c1.12-2.26,2.29-4.48,3.63-6.63-.4-.64-.81-1.27-1.25-1.89h2.48q-.65.93-1.23,1.89.54.88,1,1.77c.72,1.24,1.39,2.51,2.05,3.79l1.09,2.19.26.56.2.49A2.19,2.19,0,0,1,144.65,155.19Z"/><path class="cls-2" d="M97.41,94.63a.32.32,0,0,0-.23.23.33.33,0,0,0,.23.39c.27.07.54.12.81.17l1.15-1.15A13.23,13.23,0,0,0,97.41,94.63Z"/><path class="cls-2" d="M105,95.71a21.68,21.68,0,0,1-2.54.11h-.43L97,100.92l2.23,2,7.48-7.48A15.11,15.11,0,0,1,105,95.71Z"/><path class="cls-2" d="M94.8,103.08,32.17,165.71c.7.72,1.4,1.42,2.12,2.12L97,105.11Z"/><path class="cls-2" d="M105,94.17a14.23,14.23,0,0,1,2.47.44l3.26-3.26-2.22-2-4.75,4.75C104.21,94.1,104.63,94.13,105,94.17Z"/><path class="cls-2" d="M112.79,89.33l55-55c-.7-.72-1.4-1.42-2.12-2.12L110.58,87.3Z"/><path class="cls-2" d="M97,100.92l-2.15,2.16,2.21,2,2.17-2.17Z"/><path class="cls-2" d="M108.55,89.33l2.22,2,2-2-2.21-2Z"/><path class="cls-2" d="M105,95.71a15.11,15.11,0,0,0,1.62-.25l.85-.85a14.23,14.23,0,0,0-2.47-.44c-.41,0-.83-.07-1.24-.09l-1.73,1.73h.43A21.68,21.68,0,0,0,105,95.71Z"/><path class="cls-2" d="M171.86,34.5l-1.18,1.18-.79.79A94.45,94.45,0,0,1,36.47,169.89l-.79.79-1.18,1.18A97.23,97.23,0,0,0,171.86,34.5Z"/><path class="cls-2" d="M30.11,163.53A94.45,94.45,0,0,1,163.53,30.11l.79-.79,1.18-1.18A97.23,97.23,0,0,0,28.14,165.5l1.18-1.18Z"/><path class="cls-2" d="M32.17,165.71l-.73.73,2.12,2.12.73-.73C33.57,167.13,32.87,166.43,32.17,165.71Z"/><path class="cls-2" d="M167.83,34.29l.73-.73-2.12-2.12-.73.73C166.43,32.87,167.13,33.57,167.83,34.29Z"/><path class="cls-2" d="M36.47,169.89c-.74-.67-1.46-1.36-2.18-2.06l-.73.73-2.12-2.12.73-.73c-.7-.72-1.39-1.44-2.06-2.18l-.79.79-1.18,1.18c2,2.21,4.15,4.34,6.36,6.36l1.18-1.18Z"/><path class="cls-2" d="M163.53,30.11c.74.67,1.46,1.36,2.18,2.06l.73-.73,2.12,2.12-.73.73c.7.72,1.39,1.44,2.06,2.18l.79-.79,1.18-1.18c-2-2.21-4.15-4.34-6.36-6.36l-1.18,1.18Z"/></g></svg>