<svg xmlns="http://www.w3.org/2000/svg" viewBox="0 0 200 200"><defs><style>.cls-1{fill:none;}.cls-2{fill:#5a463e;}</style></defs><g id="圖層_6" data-name="圖層 6"><path class="cls-1" d="M143.36,141.1l2.94,7.69.37,1c.12.33.24.63.37,1a11.22,11.22,0,0,1,.55,2.27,11.91,11.91,0,0,1-5.78,11.9,11.67,11.67,0,0,1-4.39,1.52,16,16,0,0,1-2.24.11h-2.06c-11,0-22-.05-32.93,0l-32.93.11-2.06.06a14.65,14.65,0,0,1-2.28,0,11.67,11.67,0,0,1-10.24-8.92,12.42,12.42,0,0,1-.36-3.74L36.47,169.89A94.45,94.45,0,0,0,169.89,36.47L121.81,84.56C128.93,103.43,136.17,122.26,143.36,141.1Z"/><path class="cls-1" d="M62.82,125.69l6.09-15.3C72.92,100.25,77,90.13,81.09,80L81,48.07,80,48h.11A7.39,7.39,0,0,1,74,44.61a6.93,6.93,0,0,1-1.09-3.5c0-.15,0-.33,0-.44v-.38a7,7,0,0,1,.08-.92,7.29,7.29,0,0,1,.5-1.77,7.38,7.38,0,0,1,2.22-2.87A7.06,7.06,0,0,1,79,33.32a9.14,9.14,0,0,1,1.69-.07l1.47,0,2.94.09c7.85.24,15.7.37,23.55.24l11.81-.23a7,7,0,0,1,6.87,6.77,5.47,5.47,0,0,1,0,.81,5.37,5.37,0,0,1-.09.89,6.56,6.56,0,0,1-.55,1.69,7,7,0,0,1-5.45,3.88,6.2,6.2,0,0,1-.86.05l-.75,0-1.47,0-2.94-.08L103.39,47a.47.47,0,0,1-.45-.48.46.46,0,0,1,.45-.45l11.78-.34,2.94-.08,1.47,0c.24,0,.51,0,.72,0a4.07,4.07,0,0,0,.61-.07,4.59,4.59,0,0,0,3.53-2.94,5.4,5.4,0,0,0,.28-1.12,3.64,3.64,0,0,0,0-.57c0-.16,0-.5,0-.67a4.52,4.52,0,0,0-.6-2.21,4.66,4.66,0,0,0-3.82-2.34l-11.75-.25c-7.85-.12-15.7,0-23.55.25l-2.94.09a21,21,0,0,0-2.72.15,4.47,4.47,0,0,0-3.27,2.78,4.31,4.31,0,0,0-.25,1.06,5.07,5.07,0,0,0,0,.55v.36c0,.13,0,.19,0,.29A4.44,4.44,0,0,0,76.5,43a4.25,4.25,0,0,0,3.65,2.1h.12c.76.05,1.53.11,2.3.11a1.4,1.4,0,0,1,1.4,1.4v.12l-.74,33.47a1.11,1.11,0,0,1-.07.37c-3.83,10.29-7.62,20.6-11.5,30.86l-5.8,15.42-.56,1.48,12.87-12.88c.31-.74.6-1.49.91-2.24a.74.74,0,0,1,1-.4.69.69,0,0,1,.39.38L116.5,77.13l.85-25.76a.47.47,0,0,1,.48-.45.46.46,0,0,1,.45.43L119.66,74l43.87-43.87A94.45,94.45,0,0,0,30.11,163.53L59.5,134.14Zm33.5-37.08a4.69,4.69,0,0,1-6.7-.17,4.6,4.6,0,0,1-1.23-3.27,5.75,5.75,0,0,1,.32-1.73,4.48,4.48,0,0,1,.93-1.51,4.74,4.74,0,0,1,3.25-1.49,4.75,4.75,0,0,1,3.43,8.17Z"/><path class="cls-1" d="M92.89,81.89a3.36,3.36,0,0,0-2.43.86,3.25,3.25,0,0,0-1.09,2.42,3.44,3.44,0,0,0,1.11,2.41,3.38,3.38,0,0,0,2.41.86,3.28,3.28,0,0,0,0-6.55Z"/><path class="cls-1" d="M110.16,106a4.05,4.05,0,1,0,0-8.1,4.06,4.06,0,0,0,0,8.1Z"/><path class="cls-1" d="M93.57,124.46a2.47,2.47,0,0,0-1.87.22,2.28,2.28,0,1,0,3.2,2.89,2.34,2.34,0,0,0,0-1.8A2.26,2.26,0,0,0,93.57,124.46Z"/><path class="cls-1" d="M110.16,96.22a5.73,5.73,0,0,1,4,9.68,5.68,5.68,0,0,1-4,1.78,5.71,5.71,0,0,1-5.92-5.55L73.33,133q-3.35,9-6.76,17.89l-.22.58c0,.15-.09.28-.11.42a2.61,2.61,0,0,0,.67,2.35,2.49,2.49,0,0,0,1.45.79,1.93,1.93,0,0,0,.42,0c.16,0,.4,0,.59,0h1.24l9.92,0,19.83-.05,19.82,0,9.92,0h1.24c.24,0,.33,0,.47,0l.39-.08a2.41,2.41,0,0,0,1.29-.87,2.49,2.49,0,0,0,.53-1.47,2.59,2.59,0,0,0-.12-.78,1.28,1.28,0,0,0-.07-.21l-.11-.29-.22-.57c-4.71-12-9.31-24.08-14-36.12-1.45,0-2.9,0-4.36,0-1.76,0-3.53-.05-5.3-.1l-5.31-.14c-1.77-.07-3.54-.17-5.31-.39a.74.74,0,0,1-.63-.81.75.75,0,0,1,.63-.64c1.77-.22,3.54-.32,5.31-.39l5.31-.14c1.77-.05,3.54-.07,5.3-.1s3.54,0,5.31,0a1.38,1.38,0,0,1,1.29.89c4.77,12.33,9.6,24.63,14.32,37l.22.58.11.29c0,.1.09.25.13.38a5.47,5.47,0,0,1,.24,1.66,5.32,5.32,0,0,1-1.12,3.12,5.24,5.24,0,0,1-2.75,1.83,4.83,4.83,0,0,1-.83.15l-.76,0H130.1l-9.92,0-19.82,0-19.83-.05-9.92,0H68.73a5.56,5.56,0,0,1-.81-.08,5.33,5.33,0,0,1-1.54-.54,5.43,5.43,0,0,1-1.28-1A5.13,5.13,0,0,1,63.78,153a5.19,5.19,0,0,1,.1-1.62,6.82,6.82,0,0,1,.23-.77l.23-.57q2.61-6.66,5.26-13.3L57.49,148.87,57.08,150l-.37,1c-.12.31-.25.66-.33.91a8,8,0,0,0-.39,1.66,8.46,8.46,0,0,0,.21,3.36,9.17,9.17,0,0,0,4,5.31,8.66,8.66,0,0,0,3.17,1.25,30.05,30.05,0,0,0,3.89.23l32.93.11c11,.05,22,0,32.93,0h2.06a12.14,12.14,0,0,0,1.86-.09,8.81,8.81,0,0,0,3.34-1.16,9,9,0,0,0,4.37-9.06,8.33,8.33,0,0,0-.43-1.72c-.09-.27-.23-.61-.35-.92l-.38-1-3-7.67c-7.17-18.29-14.29-36.6-21.52-54.87l-8.93,8.92ZM96.27,128.05a3.78,3.78,0,0,1-1.84,2.24,3.74,3.74,0,0,1-5.22-4.68,3.67,3.67,0,0,1,2-2,3.56,3.56,0,0,1,2.72,0,4.63,4.63,0,0,1,1.19.66,3.56,3.56,0,0,1,.89,1.07A3.67,3.67,0,0,1,96.27,128.05Z"/><path class="cls-2" d="M65.85,126.87l5.8-15.42c3.88-10.26,7.67-20.57,11.5-30.86a1.11,1.11,0,0,0,.07-.37L84,46.75v-.12a1.4,1.4,0,0,0-1.4-1.4c-.77,0-1.54-.06-2.3-.11h-.12A4.25,4.25,0,0,1,76.5,43,4.44,4.44,0,0,1,75.86,41c0-.1,0-.16,0-.29v-.36a5.07,5.07,0,0,1,0-.55,4.31,4.31,0,0,1,.25-1.06,4.47,4.47,0,0,1,3.27-2.78,21,21,0,0,1,2.72-.15l2.94-.09c7.85-.25,15.7-.37,23.55-.25l11.75.25A4.66,4.66,0,0,1,124.17,38a4.52,4.52,0,0,1,.6,2.21c0,.17,0,.51,0,.67a3.64,3.64,0,0,1,0,.57,5.4,5.4,0,0,1-.28,1.12,4.59,4.59,0,0,1-3.53,2.94,4.07,4.07,0,0,1-.61.07c-.21,0-.48,0-.72,0l-1.47,0-2.94.08-11.78.34a.46.46,0,0,0-.45.45.47.47,0,0,0,.45.48l11.78.33,2.94.08,1.47,0,.75,0a6.2,6.2,0,0,0,.86-.05,7,7,0,0,0,5.45-3.88,6.56,6.56,0,0,0,.55-1.69,5.37,5.37,0,0,0,.09-.89,5.47,5.47,0,0,0,0-.81,7,7,0,0,0-6.87-6.77l-11.81.23c-7.85.13-15.7,0-23.55-.24l-2.94-.09-1.47,0a9.14,9.14,0,0,0-1.69.07,7.06,7.06,0,0,0-3.3,1.41,7.38,7.38,0,0,0-2.22,2.87,7.29,7.29,0,0,0-.5,1.77,7,7,0,0,0-.08.92v.38c0,.11,0,.29,0,.44A6.93,6.93,0,0,0,74,44.61,7.39,7.39,0,0,0,80.15,48H80l.92.09V46.72l1.39,1.51c-.46-.07-.92-.12-1.38-.16L81.09,80l.07-.19-.07.38V80C77,90.13,72.92,100.25,68.91,110.39l-6.09,15.3-3.32,8.45,5.79-5.79Z"/><path class="cls-2" d="M140.59,142.17l3,7.67.38,1c.12.31.26.65.35.92a8.33,8.33,0,0,1,.43,1.72,9,9,0,0,1-4.37,9.06,8.81,8.81,0,0,1-3.34,1.16,12.14,12.14,0,0,1-1.86.09h-2.06c-11,0-22,.05-32.93,0l-32.93-.11a30.05,30.05,0,0,1-3.89-.23,8.66,8.66,0,0,1-3.17-1.25,9.17,9.17,0,0,1-4-5.31,8.46,8.46,0,0,1-.21-3.36,8,8,0,0,1,.39-1.66c.08-.25.21-.6.33-.91l.37-1,.41-1.09L52.32,154a12.42,12.42,0,0,0,.36,3.74,11.67,11.67,0,0,0,10.24,8.92,14.65,14.65,0,0,0,2.28,0l2.06-.06,32.93-.11c11-.05,22,0,32.93,0h2.06a16,16,0,0,0,2.24-.11,11.67,11.67,0,0,0,4.39-1.52,11.91,11.91,0,0,0,5.78-11.9,11.22,11.22,0,0,0-.55-2.27c-.13-.38-.25-.68-.37-1l-.37-1-2.94-7.69c-7.19-18.84-14.43-37.67-21.55-56.54l-2.74,2.74C126.3,105.57,133.42,123.88,140.59,142.17Z"/><path class="cls-2" d="M118.28,51.35a.46.46,0,0,0-.45-.43.47.47,0,0,0-.48.45l-.85,25.76L119.66,74Z"/><path class="cls-2" d="M81,46.72v1.35c.46,0,.92.09,1.38.16Z"/><path class="cls-2" d="M81.16,79.82l-.07.19v.19Z"/><path class="cls-2" d="M119.2,113.69l.34.87h.95Z"/><path class="cls-2" d="M64.34,150.06l-.23.57a6.82,6.82,0,0,0-.23.77,5.19,5.19,0,0,0-.1,1.62,5.13,5.13,0,0,0,1.32,2.92,5.43,5.43,0,0,0,1.28,1,5.33,5.33,0,0,0,1.54.54,5.56,5.56,0,0,0,.81.08h1.88l9.92,0,19.83.05,19.82,0,9.92,0h1.24l.76,0a4.83,4.83,0,0,0,.83-.15,5.24,5.24,0,0,0,2.75-1.83,5.32,5.32,0,0,0,1.12-3.12,5.47,5.47,0,0,0-.24-1.66c0-.13-.09-.28-.13-.38l-.11-.29-.22-.58c-4.72-12.35-9.55-24.65-14.32-37a1.38,1.38,0,0,0-1.29-.89c-1.77,0-3.54,0-5.31,0s-3.53,0-5.3.1l-5.31.14c-1.77.07-3.54.17-5.31.39a.75.75,0,0,0-.63.64.74.74,0,0,0,.63.81c1.77.22,3.54.32,5.31.39l5.31.14c1.77,0,3.54.07,5.3.1,1.46,0,2.91,0,4.36,0l-.34-.87,1.29.88h-.95c4.65,12,9.25,24.1,14,36.12l.22.57.11.29a1.28,1.28,0,0,1,.07.21,2.59,2.59,0,0,1,.12.78,2.49,2.49,0,0,1-.53,1.47,2.41,2.41,0,0,1-1.29.87l-.39.08c-.14,0-.23,0-.47,0H130.1l-9.92,0-19.82,0-19.83.05-9.92,0H69.37c-.19,0-.43,0-.59,0a1.93,1.93,0,0,1-.42,0,2.49,2.49,0,0,1-1.45-.79,2.61,2.61,0,0,1-.67-2.35c0-.14.08-.27.11-.42l.22-.58Q70,142,73.33,133l-3.73,3.73Q67,143.41,64.34,150.06Z"/><path class="cls-2" d="M80,112.83a.74.74,0,0,0-1,.4c-.31.75-.6,1.5-.91,2.24l2.27-2.26A.69.69,0,0,0,80,112.83Z"/><path class="cls-2" d="M110.16,107.68a5.73,5.73,0,0,0,4-9.68,5.77,5.77,0,0,0-4-1.78h0l-5.9,5.91a5.71,5.71,0,0,0,5.92,5.55Zm-2.76-8.49a4,4,0,0,1,2.76-1.29,4.06,4.06,0,0,1,4.25,4,4,4,0,0,1-4.25,4,4.05,4.05,0,0,1-2.76-6.81Z"/><path class="cls-2" d="M92.89,80.44a4.74,4.74,0,0,0-3.25,1.49,4.48,4.48,0,0,0-.93,1.51,5.75,5.75,0,0,0-.32,1.73,4.6,4.6,0,0,0,1.23,3.27,4.74,4.74,0,1,0,3.27-8Zm2.23,7a3.31,3.31,0,0,1-2.23,1,3.38,3.38,0,0,1-2.41-.86,3.44,3.44,0,0,1-1.11-2.41,3.25,3.25,0,0,1,1.09-2.42,3.36,3.36,0,0,1,2.43-.86,3.28,3.28,0,0,1,2.23,5.52Z"/><path class="cls-2" d="M95.08,124.2a4.63,4.63,0,0,0-1.19-.66,3.56,3.56,0,0,0-2.72,0,3.67,3.67,0,0,0-2,2,3.74,3.74,0,1,0,7.06,2.44,3.67,3.67,0,0,0-.3-2.78A3.56,3.56,0,0,0,95.08,124.2Zm-.18,3.37a2.3,2.3,0,0,1-2.84,1.26,2.3,2.3,0,0,1-.36-4.15,2.47,2.47,0,0,1,1.87-.22,2.26,2.26,0,0,1,1.36,1.31A2.34,2.34,0,0,1,94.9,127.57Z"/><path class="cls-2" d="M56.74,141.14,32.17,165.71c.7.72,1.4,1.42,2.12,2.12L54,148.13Z"/><path class="cls-2" d="M120,79.82l.63,1.66,47.19-47.19c-.7-.72-1.4-1.42-2.12-2.12L119.9,78Z"/><path class="cls-2" d="M75.83,126.29l42-42c-.4-1-.79-2-1.2-3L78.32,119.56Z"/><path class="cls-2" d="M75.28,122.6,62.69,135.19,60.09,142l12.32-12.31C73.36,127.34,74.33,125,75.28,122.6Z"/><path class="cls-2" d="M120,80.18l-.13-.63c0,.09.07.18.1.27L119.9,78l-3.24,3.24c.41,1,.8,2,1.2,3l2.78-2.78L120,79.82Z"/><polygon class="cls-2" points="62.69 135.19 56.74 141.14 53.99 148.13 60.09 142.03 62.69 135.19"/><path class="cls-2" d="M120,80.18l0-.36c0-.09-.06-.18-.1-.27Z"/><path class="cls-2" d="M75.83,126.29l2.49-6.73-3,3c-1,2.37-1.92,4.74-2.87,7.12Z"/><path class="cls-2" d="M170.68,35.68l-.79.79A94.45,94.45,0,0,1,36.47,169.89l-.79.79-1.18,1.18A97.23,97.23,0,0,0,171.86,34.5Z"/><path class="cls-2" d="M30.11,163.53A94.45,94.45,0,0,1,163.53,30.11l.79-.79,1.18-1.18A97.23,97.23,0,0,0,28.14,165.5l1.18-1.18Z"/><path class="cls-2" d="M32.17,165.71l-.73.73,2.12,2.12.73-.73C33.57,167.13,32.87,166.43,32.17,165.71Z"/><path class="cls-2" d="M167.83,34.29l.73-.73-2.12-2.12-.73.73C166.43,32.87,167.13,33.57,167.83,34.29Z"/><path class="cls-2" d="M163.53,30.11c.74.67,1.46,1.36,2.18,2.06l.73-.73,2.12,2.12-.73.73c.7.72,1.39,1.44,2.06,2.18l.79-.79,1.18-1.18c-2-2.21-4.15-4.34-6.36-6.36l-1.18,1.18Z"/><path class="cls-2" d="M36.47,169.89c-.74-.67-1.46-1.36-2.18-2.06l-.73.73-2.12-2.12.73-.73c-.7-.72-1.39-1.44-2.06-2.18l-.79.79-1.18,1.18c2,2.21,4.15,4.34,6.36,6.36l1.18-1.18Z"/></g></svg>