<svg xmlns="http://www.w3.org/2000/svg" viewBox="0 0 200 200"><defs><style>.cls-1{fill:none;}.cls-2{fill:#6b8c83;}</style></defs><g id="圖層_6" data-name="圖層 6"><path class="cls-1" d="M100,5.51A94.49,94.49,0,1,0,194.49,100,94.6,94.6,0,0,0,100,5.51Zm20,66.74a1.62,1.62,0,0,1-.51.21,70.47,70.47,0,0,0-5.65,12.93,112.44,112.44,0,0,0-3.54,15.15.44.44,0,0,1-.51.37.46.46,0,0,1-.37-.41A50,50,0,0,1,113,78.77c-.07-.45-.17-1-.29-1.46s-.3-1.1-.47-1.64a23.36,23.36,0,0,0-1.31-3.2,20,20,0,0,0-1.77-3,19.71,19.71,0,0,0-2.28-2.65v0a.44.44,0,0,1,.58-.66,20.75,20.75,0,0,1,2.78,2.45,21.83,21.83,0,0,1,2.34,2.9,26.22,26.22,0,0,1,1.89,3.25c0,.12.1.25.16.37.9-1.84,1.89-3.62,3-5.36a63.36,63.36,0,0,1,4.75-6.54,62.52,62.52,0,0,1,5.59-5.8,58,58,0,0,1,6.32-5,42.31,42.31,0,0,1,7-3.92.45.45,0,0,1,.41.79h0a57.16,57.16,0,0,0-6.31,4.57,67.63,67.63,0,0,0-5.7,5.26,65.25,65.25,0,0,0-7.11,8.65c.38-.14.75-.3,1.13-.43A40.64,40.64,0,0,1,128.9,66a27.23,27.23,0,0,1,5.48-.46,17.51,17.51,0,0,1,5.41,1,.45.45,0,0,1,.26.57.45.45,0,0,1-.52.28h0a16.51,16.51,0,0,0-5.1-.4,25.66,25.66,0,0,0-5,1,35.15,35.15,0,0,0-4.82,1.84,36.93,36.93,0,0,0-4.49,2.42Zm17.54,12.81a.45.45,0,0,1-.41.32h0c-.72,0-1.42,0-2.11,0s-1.4,0-2.09,0c-1.38,0-2.75.06-4.1.19a38.33,38.33,0,0,0-4,.58,24.66,24.66,0,0,0-3.85,1.1l-.06,0a.45.45,0,0,1-.58-.25.45.45,0,0,1,.09-.46,7,7,0,0,1,1.83-1.39,13,13,0,0,1,2.06-.91,17,17,0,0,1,4.35-.81l1.1-.05,1.1,0c.73,0,1.45.1,2.18.16s1.43.23,2.14.37,1.4.36,2.09.57A.44.44,0,0,1,137.58,85.06Zm18.66-43.38,0,.06C153.45,47.62,152,54.07,151,60.66c-.52,3.31-.95,6.66-1.49,10a94.59,94.59,0,0,1-2.07,10.12,49.36,49.36,0,0,1-3.72,9.81,40,40,0,0,1-6,8.63,45.34,45.34,0,0,1-7.88,6.78c-1.45.94-2.9,1.86-4.42,2.65s-3,1.55-4.59,2.28a.44.44,0,0,1-.59-.21.45.45,0,0,1,.17-.56h0l2.13-1.36c.72-.43,1.4-.91,2.09-1.39s1.39-.93,2-1.46l2-1.53a48.4,48.4,0,0,0,7-7,39.56,39.56,0,0,0,5.13-8.28,50,50,0,0,0,3.14-9.26c1.51-6.4,2.08-13.1,3.13-19.86a93.26,93.26,0,0,1,2.05-10.16,55.73,55.73,0,0,1,2.48-7.13H151c-1.16,0-2.33.06-3.49.13q-3.49.18-7,.61a77.12,77.12,0,0,0-13.64,3,47.31,47.31,0,0,0-12.49,5.93,30.45,30.45,0,0,0-5.2,4.47,39.39,39.39,0,0,0-4.2,5.48,44.3,44.3,0,0,0-3.29,39.79A39.28,39.28,0,0,0,109,113.55h0a2.15,2.15,0,0,1,.4,2l0,0c-.65,2.1-1.31,4.32-1.87,6.51s-1.13,4.41-1.63,6.63q-1.51,6.66-2.51,13.42c-.69,4.51-1,9-1.26,13.59s-.13,9.09,0,13.72v0a.44.44,0,0,1-.87.12c-.29-1.13-.57-2.26-.82-3.41-.12-.57-.28-1.14-.36-1.72l-.26-1.73L99.54,161c-.08-.58-.17-1.16-.2-1.75l-.22-3.5c-.08-1.18,0-2.35-.06-3.52s0-2.34.08-3.51l.13-2.76A94.29,94.29,0,0,0,93,135.21c-1.29-1.94-2.67-3.83-4.11-5.67-.76.2-1.48.35-2.22.49s-1.75.3-2.63.42a49.17,49.17,0,0,1-5.28.4,47,47,0,0,1-10.52-.93,38.6,38.6,0,0,1-9.94-3.52,37.63,37.63,0,0,1-8.54-6.15,39.54,39.54,0,0,1-3.55-3.88c-.55-.68-1.07-1.38-1.58-2.09l-.74-1.08c-.24-.39-.51-.77-.71-1.17a26.94,26.94,0,0,1-2.07-4.91,50.37,50.37,0,0,1-1.32-5.07q-.53-2.56-.9-5.13c-.25-1.72-.45-3.44-.63-5.16-.34-3.46-.58-6.88-.72-10.41h0v-.07a1.94,1.94,0,0,1,2-1.83,1.91,1.91,0,0,1,1,.35,57.54,57.54,0,0,0,7,4.19,50.76,50.76,0,0,0,7.63,3c2.64.81,5.37,1.43,8.14,2.18a46.72,46.72,0,0,1,8.21,2.92,39.45,39.45,0,0,1,7.41,4.61,40.48,40.48,0,0,1,6.29,6,26.34,26.34,0,0,1,2.51,3.6c.38.62.69,1.29,1,1.94s.59,1.34.81,2a30.09,30.09,0,0,1,1.49,8.52.59.59,0,0,1-.56.62.58.58,0,0,1-.62-.53h0a28.42,28.42,0,0,0-1.73-8.07c-.24-.64-.55-1.25-.83-1.87s-.64-1.2-1-1.77a23.58,23.58,0,0,0-2.47-3.25,38.73,38.73,0,0,0-6.19-5.44A37.41,37.41,0,0,0,70.6,94.4c-5-2.2-10.56-2.84-16.18-4.31a52.89,52.89,0,0,1-8.27-2.86c-1.67-.75-3.31-1.59-4.9-2.5-.13,2.27-.16,4.57-.1,6.85,0,1.68.13,3.37.28,5s.35,3.35.64,5A31.15,31.15,0,0,0,45,111c.18.36.41.68.61,1l.71,1c.49.68,1,1.34,1.51,2a39.07,39.07,0,0,0,3.38,3.66,33.26,33.26,0,0,0,8.12,5.66,34.22,34.22,0,0,0,9.4,3,39.4,39.4,0,0,0,9.88.4,44.44,44.44,0,0,0,4.9-.69c.81-.16,1.61-.33,2.4-.55l.48-.13c-.8-1-1.61-1.89-2.43-2.81-1.64-1.83-3.38-3.57-5.13-5.29l-1-.91-.48-.2c-.36-.15-.73-.27-1.1-.4a22.54,22.54,0,0,0-2.28-.61,22,22,0,0,0-9.55.15,19.5,19.5,0,0,0-2.34.68c-.78.25-1.51.61-2.28.92h0a.44.44,0,0,1-.57-.24.45.45,0,0,1,.2-.56c.76-.39,1.49-.84,2.27-1.19a22.32,22.32,0,0,1,2.38-1,22.83,22.83,0,0,1,5.06-1.17,23.44,23.44,0,0,1,4.74-.07c-.17-.14-.33-.29-.49-.44a135.1,135.1,0,0,0-11.78-9h0a.45.45,0,0,1,.42-.78,49.44,49.44,0,0,1,5,2.5c-.15-.46-.3-.92-.44-1.39a23.13,23.13,0,0,1-.76-3.7,16.74,16.74,0,0,1,0-3.81,11.15,11.15,0,0,1,1.13-3.65.45.45,0,0,1,.6-.19.44.44,0,0,1,.21.56v0A10.53,10.53,0,0,0,67,97.24a16.36,16.36,0,0,0,.29,3.48,22.13,22.13,0,0,0,1,3.38,23,23,0,0,0,1.45,3.18v0a1.23,1.23,0,0,1,.13.41c1.79,1.12,3.56,2.28,5.25,3.56,1,.76,2,1.53,3,2.33.61.5,1.2,1,1.8,1.54a1.73,1.73,0,0,1,.35.31c.24.21.5.41.74.63a76.14,76.14,0,0,1,5.43,5.35,66.47,66.47,0,0,1,9.09,12.26c.65,1.1,1.21,2.25,1.81,3.37.28.57.53,1.16.8,1.74s.52,1.16.75,1.75.48,1.19.71,1.8l0-.66a138,138,0,0,1,2.13-13.86c.49-2.29,1-4.57,1.62-6.83.51-1.92,1.06-3.8,1.69-5.71A47.91,47.91,0,0,1,96,88.93a49.07,49.07,0,0,1,1.51-14.44,47.73,47.73,0,0,1,2.33-6.89,44.94,44.94,0,0,1,3.41-6.43,42,42,0,0,1,4.43-5.78,32.36,32.36,0,0,1,5.53-4.8,51.67,51.67,0,0,1,13-6.46,87.86,87.86,0,0,1,14-3.55c2.36-.43,4.75-.77,7.14-1q1.78-.19,3.6-.33c1.21-.1,2.39-.18,3.66-.22h0a1.88,1.88,0,0,1,1.71,2.68ZM59,103.57a.45.45,0,0,1-.52.23h0a28.07,28.07,0,0,0-3-.75,20,20,0,0,0-3.09-.33,21.3,21.3,0,0,0-3.09.13,23.54,23.54,0,0,0-3.06.52h0a.44.44,0,0,1-.31-.82,11.58,11.58,0,0,1,3.2-1.06,14.38,14.38,0,0,1,3.34-.23,14.89,14.89,0,0,1,3.32.5A14.36,14.36,0,0,1,58.77,103,.43.43,0,0,1,59,103.57Z"/><path class="cls-2" d="M100,2.72A97.28,97.28,0,1,0,197.28,100,97.39,97.39,0,0,0,100,2.72Zm0,191.77A94.49,94.49,0,1,1,194.49,100,94.6,94.6,0,0,1,100,194.49Z"/><path class="cls-2" d="M41.5,81.51l-3,1.55c.92.58,1.86,1.13,2.8,1.67.06-1.08.14-2.16.25-3.22Z"/><path class="cls-2" d="M85.94,126.58c-.79.22-1.59.39-2.4.55a44.44,44.44,0,0,1-4.9.69,39.4,39.4,0,0,1-9.88-.4,34.22,34.22,0,0,1-9.4-3,33.26,33.26,0,0,1-8.12-5.66,39.07,39.07,0,0,1-3.38-3.66c-.52-.65-1-1.31-1.51-2l-.71-1c-.2-.35-.43-.67-.61-1a31.15,31.15,0,0,1-3-9.41c-.29-1.65-.49-3.32-.64-5s-.25-3.36-.28-5c-.06-2.28,0-4.58.1-6.85-.94-.54-1.88-1.09-2.8-1.67l3-1.55h0c-.11,1.06-.19,2.14-.25,3.22,1.59.91,3.23,1.75,4.9,2.5a52.89,52.89,0,0,0,8.27,2.86C60,91.56,65.6,92.2,70.6,94.4a37.41,37.41,0,0,1,7.14,4.06,38.73,38.73,0,0,1,6.19,5.44,23.58,23.58,0,0,1,2.47,3.25c.39.57.69,1.18,1,1.77s.59,1.23.83,1.87A28.42,28.42,0,0,1,90,118.86h0a.58.58,0,0,0,.62.53.59.59,0,0,0,.56-.62,30.09,30.09,0,0,0-1.49-8.52c-.22-.7-.53-1.36-.81-2s-.64-1.32-1-1.94a26.34,26.34,0,0,0-2.51-3.6,40.48,40.48,0,0,0-6.29-6,39.45,39.45,0,0,0-7.41-4.61,46.72,46.72,0,0,0-8.21-2.92c-2.77-.75-5.5-1.37-8.14-2.18a50.76,50.76,0,0,1-7.63-3,57.54,57.54,0,0,1-7-4.19,1.91,1.91,0,0,0-1-.35,1.94,1.94,0,0,0-2,1.83v.07h0c.14,3.53.38,7,.72,10.41.18,1.72.38,3.44.63,5.16s.55,3.42.9,5.13a50.37,50.37,0,0,0,1.32,5.07A26.94,26.94,0,0,0,43.22,112c.2.4.47.78.71,1.17l.74,1.08c.51.71,1,1.41,1.58,2.09a39.54,39.54,0,0,0,3.55,3.88,37.63,37.63,0,0,0,8.54,6.15,38.6,38.6,0,0,0,9.94,3.52,47,47,0,0,0,10.52.93,49.17,49.17,0,0,0,5.28-.4c.88-.12,1.75-.26,2.63-.42s1.46-.29,2.22-.49c-.82-1-1.65-2.08-2.51-3.09Z"/><path class="cls-2" d="M154.47,42.81l-1.68-2.74c-.45.88-.86,1.78-1.25,2.69,1,0,2,0,2.93.05Z"/><path class="cls-2" d="M154.53,39h0c-1.27,0-2.45.12-3.66.22s-2.41.2-3.6.33c-2.39.26-4.78.6-7.14,1a87.86,87.86,0,0,0-14,3.55,51.67,51.67,0,0,0-13,6.46,32.36,32.36,0,0,0-5.53,4.8,42,42,0,0,0-4.43,5.78,44.94,44.94,0,0,0-3.41,6.43,47.73,47.73,0,0,0-2.33,6.89A49.07,49.07,0,0,0,96,88.93a47.91,47.91,0,0,0,9.07,26.36c.12-.36.22-.71.34-1.07l.38,2h0c-.25-.32-.48-.64-.72-1-.63,1.91-1.18,3.79-1.69,5.71-.61,2.26-1.13,4.54-1.62,6.83a138,138,0,0,0-2.13,13.86l0,.66a49.22,49.22,0,0,1,1.62,5.44.45.45,0,0,1-.32.54.46.46,0,0,1-.51-.24h0c-.35-.72-.72-1.43-1.08-2.14l-.13,2.76c-.08,1.17-.08,2.34-.08,3.51s0,2.34.06,3.52l.22,3.5c0,.59.12,1.17.2,1.75l.23,1.75.26,1.73c.08.58.24,1.15.36,1.72.25,1.15.53,2.28.82,3.41a.44.44,0,0,0,.87-.12v0c-.13-4.63-.23-9.17,0-13.72s.57-9.08,1.26-13.59,1.5-9,2.51-13.42c.5-2.22,1.05-4.43,1.63-6.63s1.22-4.41,1.87-6.51l0,0a2.15,2.15,0,0,0-.4-2h0a39.28,39.28,0,0,1-7.22-11.43A44.3,44.3,0,0,1,105,62.33a39.39,39.39,0,0,1,4.2-5.48,30.45,30.45,0,0,1,5.2-4.47,47.31,47.31,0,0,1,12.49-5.93,77.12,77.12,0,0,1,13.64-3q3.48-.43,7-.61c1.16-.07,2.33-.11,3.49-.13h.51c.39-.91.8-1.81,1.25-2.69l1.68,2.74h0c-.94,0-1.94-.05-2.93-.05a55.73,55.73,0,0,0-2.48,7.13A93.26,93.26,0,0,0,147,60.05c-1,6.76-1.62,13.46-3.13,19.86a50,50,0,0,1-3.14,9.26,39.56,39.56,0,0,1-5.13,8.28,48.4,48.4,0,0,1-7,7l-2,1.53c-.64.53-1.35,1-2,1.46s-1.37,1-2.09,1.39l-2.13,1.36h0a.45.45,0,0,0-.17.56.44.44,0,0,0,.59.21c1.54-.73,3.11-1.41,4.59-2.28s3-1.71,4.42-2.65a45.34,45.34,0,0,0,7.88-6.78,40,40,0,0,0,6-8.63,49.36,49.36,0,0,0,3.72-9.81,94.59,94.59,0,0,0,2.07-10.12c.54-3.37,1-6.72,1.49-10,1-6.59,2.47-13,5.23-18.92l0-.06A1.88,1.88,0,0,0,154.53,39Z"/><path class="cls-2" d="M105.77,116.25l-.38-2c-.12.36-.22.71-.34,1.07.24.32.47.64.72,1Z"/><path class="cls-2" d="M77,114.25c.43.1.87.2,1.3.33a12.54,12.54,0,0,1,1.35.45l.22.11c-.6-.51-1.19-1-1.8-1.54-1-.8-2-1.57-3-2.33-1.69-1.28-3.46-2.44-5.25-3.56a1,1,0,0,1-1.89.58.43.43,0,0,1,0-.07A23.16,23.16,0,0,1,67,106a49.44,49.44,0,0,0-5-2.5.45.45,0,0,0-.42.78h0a135.1,135.1,0,0,1,11.78,9c.16.15.32.3.49.44l.5,0A23.38,23.38,0,0,1,77,114.25Z"/><path class="cls-2" d="M99.56,142.35c-.23-.61-.46-1.21-.71-1.8s-.48-1.18-.75-1.75-.52-1.17-.8-1.74c-.6-1.12-1.16-2.27-1.81-3.37a66.47,66.47,0,0,0-9.09-12.26A76.14,76.14,0,0,0,81,116.08c-.24-.22-.5-.42-.74-.63a1.47,1.47,0,0,1-1.66,2.32l-.13-.07,0,0-.51-.24,1,.91c1.75,1.72,3.49,3.46,5.13,5.29.82.92,1.63,1.86,2.43,2.81.63-.18,1.26-.38,1.79-.58h0a1.88,1.88,0,0,1,1.31,3.52l-.15.05-.47.11c1.44,1.84,2.82,3.73,4.11,5.67a94.29,94.29,0,0,1,6.23,10.73l0-.75Z"/><path class="cls-2" d="M89.55,129.38a1.88,1.88,0,0,0-1.31-3.52h0c-.53.2-1.16.4-1.79.58.86,1,1.69,2,2.51,3.09l.47-.11Z"/><path class="cls-2" d="M100.35,148.09a.46.46,0,0,0,.51.24.45.45,0,0,0,.32-.54,49.22,49.22,0,0,0-1.62-5.44l-.25,2.84,0,.75c.36.71.73,1.42,1.08,2.14Z"/><path class="cls-2" d="M117.84,71.77a1.59,1.59,0,0,1,.48-2.2l.14-.08c.88-.44,1.7-.79,2.56-1.14.47-.2,1-.36,1.44-.53a65.25,65.25,0,0,1,7.11-8.65,67.63,67.63,0,0,1,5.7-5.26,57.16,57.16,0,0,1,6.31-4.57h0a.45.45,0,0,0-.41-.79,42.31,42.31,0,0,0-7,3.92,58,58,0,0,0-6.32,5,62.52,62.52,0,0,0-5.59,5.8,63.36,63.36,0,0,0-4.75,6.54c-1.07,1.74-2.06,3.52-3,5.36.21.45.42.89.61,1.36s.44,1.16.64,1.86a1.45,1.45,0,0,1-2.8.79,1.42,1.42,0,0,1,0-.2v0a.78.78,0,0,0,0-.14,50,50,0,0,0-3.5,21.73.46.46,0,0,0,.37.41.44.44,0,0,0,.51-.37,112.44,112.44,0,0,1,3.54-15.15,70.47,70.47,0,0,1,5.65-12.93A1.6,1.6,0,0,1,117.84,71.77Z"/><path class="cls-2" d="M55.66,101.76a14.89,14.89,0,0,0-3.32-.5,14.38,14.38,0,0,0-3.34.23,11.58,11.58,0,0,0-3.2,1.06.44.44,0,0,0,.31.82h0a23.54,23.54,0,0,1,3.06-.52,21.3,21.3,0,0,1,3.09-.13,20,20,0,0,1,3.09.33,28.07,28.07,0,0,1,3,.75h0a.45.45,0,0,0,.52-.23.43.43,0,0,0-.19-.59A14.36,14.36,0,0,0,55.66,101.76Z"/><path class="cls-2" d="M73.89,113.8a23.44,23.44,0,0,0-4.74.07A22.83,22.83,0,0,0,64.09,115a22.32,22.32,0,0,0-2.38,1c-.78.35-1.51.8-2.27,1.19a.45.45,0,0,0-.2.56.44.44,0,0,0,.57.24h0c.77-.31,1.5-.67,2.28-.92a19.5,19.5,0,0,1,2.34-.68,22,22,0,0,1,9.55-.15,22.54,22.54,0,0,1,2.28.61c.37.13.74.25,1.1.4l.48.2c-.57-.54-1.14-1.09-1.73-1.62S74.65,114.47,73.89,113.8Z"/><path class="cls-2" d="M79.88,115.14l.35.31A1.73,1.73,0,0,0,79.88,115.14Z"/><path class="cls-2" d="M78.44,117.7l.13.07a1.47,1.47,0,0,0,1.66-2.32l-.35-.31-.22-.11a12.54,12.54,0,0,0-1.35-.45c-.43-.13-.87-.23-1.3-.33a23.38,23.38,0,0,0-2.62-.41l-.5,0c.76.67,1.53,1.34,2.27,2s1.16,1.08,1.73,1.62l.51.24Z"/><path class="cls-2" d="M69.82,107.71a1.23,1.23,0,0,0-.13-.41v0a23,23,0,0,1-1.45-3.18,22.13,22.13,0,0,1-1-3.38A16.36,16.36,0,0,1,67,97.24a10.53,10.53,0,0,1,.77-3.37v0a.44.44,0,0,0-.21-.56.45.45,0,0,0-.6.19,11.15,11.15,0,0,0-1.13,3.65,16.74,16.74,0,0,0,0,3.81,23.13,23.13,0,0,0,.76,3.7c.14.47.29.93.44,1.39.59.33,1.17.66,1.75,1C69.12,107.25,69.46,107.49,69.82,107.71Z"/><path class="cls-2" d="M67.93,108.29a1,1,0,0,0,1.89-.58c-.36-.22-.7-.46-1-.67-.58-.35-1.16-.68-1.75-1a23.16,23.16,0,0,0,.87,2.19A.43.43,0,0,0,67.93,108.29Z"/><path class="cls-2" d="M114.42,74.76a26.22,26.22,0,0,0-1.89-3.25,21.83,21.83,0,0,0-2.34-2.9,20.75,20.75,0,0,0-2.78-2.45.44.44,0,0,0-.58.66v0a19.71,19.71,0,0,1,2.28,2.65,20,20,0,0,1,1.77,3,23.36,23.36,0,0,1,1.31,3.2c.17.54.33,1.09.47,1.64s.22,1,.29,1.46c.5-1.23,1-2.45,1.62-3.64C114.52,75,114.47,74.88,114.42,74.76Z"/><path class="cls-2" d="M113,78.94a1.42,1.42,0,0,0,0,.2,1.45,1.45,0,0,0,2.8-.79c-.2-.7-.41-1.26-.64-1.86s-.4-.91-.61-1.36c-.58,1.19-1.12,2.41-1.62,3.64a.78.78,0,0,1,0,.14Z"/><path class="cls-2" d="M135.2,83.93c-.71-.14-1.42-.27-2.14-.37s-1.45-.17-2.18-.16l-1.1,0-1.1.05a17,17,0,0,0-4.35.81,13,13,0,0,0-2.06.91,7,7,0,0,0-1.83,1.39.45.45,0,0,0-.09.46.45.45,0,0,0,.58.25l.06,0a24.66,24.66,0,0,1,3.85-1.1,38.33,38.33,0,0,1,4-.58c1.35-.13,2.72-.16,4.1-.19.69,0,1.39,0,2.09,0s1.39,0,2.11,0h0a.45.45,0,0,0,.41-.32.44.44,0,0,0-.29-.56C136.6,84.29,135.9,84.1,135.2,83.93Z"/><path class="cls-2" d="M129.37,68a25.66,25.66,0,0,1,5-1,16.51,16.51,0,0,1,5.1.4h0a.45.45,0,0,0,.52-.28.45.45,0,0,0-.26-.57,17.51,17.51,0,0,0-5.41-1,27.23,27.23,0,0,0-5.48.46,40.64,40.64,0,0,0-5.31,1.39c-.38.13-.75.29-1.13.43-.8,1.16-1.57,2.34-2.3,3.56l-.63,1.08a1.62,1.62,0,0,0,.51-.21h0a36.93,36.93,0,0,1,4.49-2.42A35.15,35.15,0,0,1,129.37,68Z"/><path class="cls-2" d="M122.46,67.82c-.48.17-1,.33-1.44.53-.86.35-1.68.7-2.56,1.14l-.14.08a1.59,1.59,0,0,0,1.21,2.89l.63-1.08C120.89,70.16,121.66,69,122.46,67.82Z"/></g></svg>