<svg xmlns="http://www.w3.org/2000/svg" viewBox="0 0 200 200"><defs><style>.cls-1{fill:none;}.cls-2{fill:#6b8c83;}</style></defs><g id="圖層_6" data-name="圖層 6"><path class="cls-1" d="M141.2,123.15l.17.24A1.39,1.39,0,0,0,141.2,123.15Z"/><path class="cls-1" d="M54.61,133.07c-.1-.82-.1-1.65-.15-2.47s0-1.64.08-2.45a33.05,33.05,0,0,1,2.07-9.45.47.47,0,0,1,.6-.27.48.48,0,0,1,.3.51,47.15,47.15,0,0,0-.52,9.23,31.56,31.56,0,0,0,.86,6L92.24,99.78l-1.31,0h-.14a1.75,1.75,0,0,1-1.53-1.55A28.06,28.06,0,0,0,88,92.25a29.07,29.07,0,0,0-2.53-5.57,31.08,31.08,0,0,0-3.64-5,30.46,30.46,0,0,0-2.18-2.22,24.48,24.48,0,0,0-2.36-1.94h0l-.09-.06A1.06,1.06,0,0,1,77,76L77,75.9c1.21-1.35,2.37-2.76,3.5-4.18s2.18-2.91,3.21-4.41a62.5,62.5,0,0,0,5.3-9.48,40.37,40.37,0,0,0,3.13-10.24,26.4,26.4,0,0,0,.32-5.23,19,19,0,0,0-.28-2.54c-.07-.31-.14-.62-.22-.92A18.06,18.06,0,0,0,84.15,43a32.25,32.25,0,0,0-6.69,8.53A59.52,59.52,0,0,0,73,61.71a74.46,74.46,0,0,0-2.77,10.88v0a.46.46,0,0,1-.91-.14,75,75,0,0,1,2.19-11.21,60.91,60.91,0,0,1,4-10.79,34.69,34.69,0,0,1,6.72-9.6,22.39,22.39,0,0,1,4.87-3.61A19.84,19.84,0,0,1,92.9,35.2H93a1.65,1.65,0,0,1,1.75,1.05,4.76,4.76,0,0,1,.15.47l.1.4c.06.26.11.52.15.77.09.51.16,1,.2,1.51a21,21,0,0,1,.07,3,31.77,31.77,0,0,1-.76,5.71,49.18,49.18,0,0,1-3.8,10.62,81.2,81.2,0,0,1-5.6,9.66c-1,1.55-2.1,3.06-3.21,4.55l-1.66,2.22c-.33.41-.64.83-1,1.24.6.43,1.17.87,1.74,1.34a33.1,33.1,0,0,1,2.48,2.25,34.88,34.88,0,0,1,4.24,5.2,31.14,31.14,0,0,1,4.66,11.27q1.29.23,2.55.48l67.65-67.65A94.59,94.59,0,0,0,29.24,162.78l26-26A24.56,24.56,0,0,1,54.61,133.07Zm-9.23-26a18.52,18.52,0,0,1-4.84-5.24,8.87,8.87,0,0,1-1.2-3.53,6.59,6.59,0,0,1,.09-1.93,5.82,5.82,0,0,1,.26-.93l.3-.81a42.63,42.63,0,0,1,2.9-6.29,38.05,38.05,0,0,1,4-5.68A30,30,0,0,1,52,77.9,26.3,26.3,0,0,1,55,76c.52-.28,1-.55,1.6-.79l.83-.35h0a83.33,83.33,0,0,1-.75-11A61.21,61.21,0,0,1,57.86,52a42.05,42.05,0,0,1,4.08-11.42,31.74,31.74,0,0,1,3.46-5.12,25.93,25.93,0,0,1,2.16-2.3c.38-.36.78-.71,1.21-1l.65-.5.35-.25.43-.27a1.89,1.89,0,0,1,2.56.62h0a26.42,26.42,0,0,1,1.81,5.06c.21.86.38,1.71.51,2.57a25.12,25.12,0,0,1,.24,2.6.46.46,0,0,1-.45.48.47.47,0,0,1-.46-.31v0a22.79,22.79,0,0,0-.92-2.26,23.25,23.25,0,0,0-1.15-2.15,21.37,21.37,0,0,0-1.54-2.26c-.24.18-.47.36-.7.56a22.8,22.8,0,0,0-1.92,1.89,28.63,28.63,0,0,0-3.24,4.43,38.61,38.61,0,0,0-4.15,10.37A57.58,57.58,0,0,0,59.24,64a81.2,81.2,0,0,0,.39,11.54,1.06,1.06,0,0,1-.1.51,1,1,0,0,1-.43.48,1,1,0,0,1-.29.13h-.05l-.09,0-.18,0-.38.11-.75.26c-.5.19-1,.41-1.49.65A23.53,23.53,0,0,0,53,79.34a27.66,27.66,0,0,0-4.93,4.37,35.41,35.41,0,0,0-6.63,11.46l-.29.78a6.15,6.15,0,0,0-.18.71,5.1,5.1,0,0,0,0,1.46A7.28,7.28,0,0,0,42,101a15.82,15.82,0,0,0,4.52,4.52A26.63,26.63,0,0,0,58.19,110c1.5-.75,3-1.46,4.54-2.15a50.3,50.3,0,0,1,5.24-2,.46.46,0,0,1,.36.85h0a49.84,49.84,0,0,0-4.68,2.84c-1.52,1-3,2.1-4.47,3.18a1.15,1.15,0,0,1-.94.21h0a31.21,31.21,0,0,1-6.75-2.21A30.29,30.29,0,0,1,45.38,107.06ZM66.1,93.45a3.13,3.13,0,1,1-2.21-3.83A3.12,3.12,0,0,1,66.1,93.45Z"/><path class="cls-1" d="M105.46,99.51c2.32.72,4.63,1.47,6.89,2.36s4.5,1.83,6.68,2.91a64,64,0,0,1,12.34,7.77,51.89,51.89,0,0,1,8.95,9.41l.6-.44a18,18,0,0,1,2.13-1.25,12.44,12.44,0,0,1,4.87-1.35,9.14,9.14,0,0,1,5,1.22,12.15,12.15,0,0,1,3.65,3.4,9.77,9.77,0,0,1,1.86,4.64,8.67,8.67,0,0,1-.89,4.9,9.7,9.7,0,0,1-3.21,3.63,7.8,7.8,0,0,1-4.58,1.41.46.46,0,0,1-.45-.48.47.47,0,0,1,.43-.45h0a6.72,6.72,0,0,0,3.77-1.58,8.07,8.07,0,0,0,2.46-3.25,7,7,0,0,0,.45-3.89,8,8,0,0,0-1.7-3.54,9.57,9.57,0,0,0-3-2.56,6.66,6.66,0,0,0-3.64-.69,9.75,9.75,0,0,0-3.71,1.21,15.14,15.14,0,0,0-1.73,1.09c-.27.2-.54.41-.8.63l-.39.34-.18.16-.08.09,0,0,0,0a1.54,1.54,0,0,1-1.24.44,1.58,1.58,0,0,1-.84-.34,1.41,1.41,0,0,1-.34-.39,37,37,0,0,0-8.6-10.95,51.43,51.43,0,0,0-11.83-7.73,66.84,66.84,0,0,0-13.4-4.69c-.48-.12-1-.21-1.43-.31L61.64,143.11c.37.57.75,1.13,1.15,1.68a30.87,30.87,0,0,0,2.87,3.38c.52.53,1.06,1,1.61,1.53.27.25.55.49.83.72s.59.47.82.64l.22.17a1.36,1.36,0,0,1,.37,1.74h0c-.59,1-1.14,2.13-1.65,3.22s-1,2.21-1.44,3.33-.84,2.27-1.16,3.42a20.31,20.31,0,0,0-.72,3.48,6.1,6.1,0,0,0,.3,3.2,1.68,1.68,0,0,0,.92.86,3.8,3.8,0,0,0,1.53.14,8.42,8.42,0,0,0,3.32-.68A5.36,5.36,0,0,0,72,169a8.51,8.51,0,0,0,1.1-1.27c.67-.94,1.28-2,1.92-3.07a32.38,32.38,0,0,1,2.13-3.16,31.73,31.73,0,0,1,2.56-2.88l.63-.63c.2-.2.39-.41.57-.62.38-.42.75-.84,1.1-1.27A18.11,18.11,0,0,0,85.67,143v0a.47.47,0,0,1,.92-.16,19.1,19.1,0,0,1,.37,7.61A17.84,17.84,0,0,1,86,154h.09a2.09,2.09,0,0,1,.5.16c1,.49,2.16,1,3.27,1.37s2.27.8,3.43,1.15a46,46,0,0,0,7.06,1.62.33.33,0,0,1,.28.37.32.32,0,0,1-.34.28l-3.67-.16c-1.22,0-2.45-.13-3.69-.21s-2.46-.21-3.7-.34-2.46-.27-3.78-.5a1.88,1.88,0,0,1-1-.51c-.1.17-.18.34-.29.51a12.66,12.66,0,0,1-1.25,1.57c-.23.24-.47.47-.72.7s-.5.45-.71.62A28,28,0,0,0,79,163.08a34.1,34.1,0,0,0-2.28,2.76c-.74,1-1.43,2-2.27,3a8.77,8.77,0,0,1-3.19,2.47,11.3,11.3,0,0,1-3.87.77c-.33,0-.61,0-1,0a3.69,3.69,0,0,1-1.12-.21,3.18,3.18,0,0,1-1.74-1.56,7.93,7.93,0,0,1-.6-4,37.25,37.25,0,0,1,1.53-7.43c.36-1.2.73-2.4,1.13-3.58.26-.77.53-1.52.8-2.28-.38-.25-.75-.5-1.12-.78a24.69,24.69,0,0,1-1.93-1.59A26.33,26.33,0,0,1,60,146.9c-.3-.4-.59-.82-.87-1.24L35.53,169.22A94.59,94.59,0,0,0,169.22,35.53L105.29,99.46Zm40.87,53.09a16,16,0,0,1-5.81,7.28,28.16,28.16,0,0,1-6.24,3.27,11.56,11.56,0,0,1,.67,1.26,7,7,0,0,1,.54,2,4.5,4.5,0,0,1-.27,2.19,4.43,4.43,0,0,1-1.28,1.73,7.48,7.48,0,0,1-1.63,1,15.35,15.35,0,0,1-3.37,1,29.62,29.62,0,0,1-3.36.41c-1.11.09-2.23.13-3.34.14-2.22,0-4.39,0-6.59.08s-4.39.2-6.67.11a13.79,13.79,0,0,1-1.77-.18,5.47,5.47,0,0,1-2-.68,3,3,0,0,1-1-.88,3.47,3.47,0,0,1-.54-1.16,6.1,6.1,0,0,1-.16-1c0-.16,0-.32,0-.47v-.23a2,2,0,0,1,0-.34,3.88,3.88,0,0,1,1.06-2.16,7.38,7.38,0,0,1,1.53-1.22,16,16,0,0,1,3.21-1.45,28,28,0,0,1,4-1,19.62,19.62,0,0,1-7.15-3.82,12.45,12.45,0,0,1-4.44-10.09,18,18,0,0,1,4-10.18,19.62,19.62,0,0,1,3.86-3.81,11.9,11.9,0,0,1,4.94-2.25.37.37,0,0,1,.41.3.36.36,0,0,1-.23.4h0a13,13,0,0,0-4.16,2.7,20.91,20.91,0,0,0-3.22,3.81,20.2,20.2,0,0,0-2.24,4.39,14.65,14.65,0,0,0-1,4.72,10.87,10.87,0,0,0,.82,4.59,11.68,11.68,0,0,0,2.69,3.88,25.36,25.36,0,0,0,8.63,5l.09,0a.52.52,0,0,1,.29.67.52.52,0,0,1-.42.32h0c-2,.74-4.09,1.48-6,2.35a17.75,17.75,0,0,0-2.66,1.47,6.41,6.41,0,0,0-1,.87,1.3,1.3,0,0,0-.37.73v.25c0,.12,0,.23,0,.35a3.54,3.54,0,0,0,.08.57.83.83,0,0,0,.36.56,3.68,3.68,0,0,0,1.12.43c.46.11,1,.21,1.48.28,2.09.29,4.29.43,6.47.54,1.09,0,2.18.08,3.28.08s2.19,0,3.27,0a31.79,31.79,0,0,0,6.36-.76,11.7,11.7,0,0,0,2.86-1,3.22,3.22,0,0,0,1.67-1.75c.4-1.27-.95-3.17-2.35-4.26h0l-.16-.19a1.52,1.52,0,0,1,.18-2.14,1.47,1.47,0,0,1,.61-.31,27.52,27.52,0,0,0,7.7-3.13,13.59,13.59,0,0,0,5.37-5.92,14.5,14.5,0,0,0,.94-8.12,24.46,24.46,0,0,0-2.74-8.05v0a.46.46,0,0,1,.8-.47,25.57,25.57,0,0,1,3.4,8.3A16.32,16.32,0,0,1,146.33,152.6Z"/><path class="cls-1" d="M58.28,74.58l-.06,0h.06Z"/><path class="cls-2" d="M78.45,75.68l.26,1.63.75-1c-.32-.23-.65-.45-1-.67Z"/><path class="cls-2" d="M93.45,38.65l-1.88-1,.08.18.1.26c.07.18.13.37.19.56l.06.29c.48-.1,1-.19,1.45-.25Z"/><path class="cls-2" d="M91.16,96.16l1.66,1.57q-.1-.66-.24-1.32l-1.42-.25Z"/><path class="cls-2" d="M104.9,101.59a66.84,66.84,0,0,1,13.4,4.69A51.43,51.43,0,0,1,130.13,114a37,37,0,0,1,8.6,10.95,1.41,1.41,0,0,0,.34.39,1.58,1.58,0,0,0,.84.34,1.54,1.54,0,0,0,1.24-.44l0,0,0,0,.08-.09.18-.16.39-.34c.26-.22.53-.43.8-.63a15.14,15.14,0,0,1,1.73-1.09,9.75,9.75,0,0,1,3.71-1.21,6.66,6.66,0,0,1,3.64.69,9.57,9.57,0,0,1,3,2.56,8,8,0,0,1,1.7,3.54,7,7,0,0,1-.45,3.89,8.07,8.07,0,0,1-2.46,3.25,6.72,6.72,0,0,1-3.77,1.58h0a.47.47,0,0,0-.43.45.46.46,0,0,0,.45.48,7.8,7.8,0,0,0,4.58-1.41,9.7,9.7,0,0,0,3.21-3.63,8.67,8.67,0,0,0,.89-4.9,9.77,9.77,0,0,0-1.86-4.64,12.15,12.15,0,0,0-3.65-3.4,9.14,9.14,0,0,0-5-1.22,12.44,12.44,0,0,0-4.87,1.35,18,18,0,0,0-2.13,1.25l-.6.44c.29.4.6.79.88,1.19a1.39,1.39,0,0,1,.17.24l-.17-.24c0-.05-.09-.11-.15-.16a1.52,1.52,0,0,0-2.05.06l0,0,.07-.06.12-.11.24-.21.48-.39.38-.29a51.89,51.89,0,0,0-8.95-9.41A64,64,0,0,0,119,104.78c-2.18-1.08-4.41-2-6.68-2.91s-4.57-1.64-6.89-2.36l-.17-.05-1.82,1.82C103.94,101.38,104.42,101.47,104.9,101.59Z"/><path class="cls-2" d="M139.46,122.64l-.24.21-.12.11L139,123l0,0a1.52,1.52,0,0,1,2.05-.06c.06.05.1.11.15.16-.28-.4-.59-.79-.88-1.19l-.38.29Z"/><path class="cls-2" d="M92.58,96.41q.14.66.24,1.32l-1.66-1.57h0l1.42.25a31.14,31.14,0,0,0-4.66-11.27,34.88,34.88,0,0,0-4.24-5.2,33.1,33.1,0,0,0-2.48-2.25c-.57-.47-1.14-.91-1.74-1.34l-.75,1-.26-1.63h0c.35.22.68.44,1,.67.32-.41.63-.83,1-1.24l1.66-2.22c1.11-1.49,2.18-3,3.21-4.55a81.2,81.2,0,0,0,5.6-9.66,49.18,49.18,0,0,0,3.8-10.62,31.77,31.77,0,0,0,.76-5.71,21,21,0,0,0-.07-3c0-.5-.11-1-.2-1.51,0-.25-.09-.51-.15-.77l-.1-.4a4.76,4.76,0,0,0-.15-.47A1.65,1.65,0,0,0,93,35.19H92.9a19.84,19.84,0,0,0-5.81,2.06,22.39,22.39,0,0,0-4.87,3.61,34.69,34.69,0,0,0-6.72,9.6,60.91,60.91,0,0,0-4,10.79,75,75,0,0,0-2.19,11.21.46.46,0,0,0,.91.14v0A74.46,74.46,0,0,1,73,61.71,59.52,59.52,0,0,1,77.46,51.5,32.25,32.25,0,0,1,84.15,43,18.06,18.06,0,0,1,92,38.9l-.06-.29c-.06-.19-.12-.38-.19-.56l-.1-.26-.08-.18,1.88,1h0c-.49.06-1,.15-1.45.25.08.3.15.61.22.92a19,19,0,0,1,.28,2.54,26.4,26.4,0,0,1-.32,5.23,40.37,40.37,0,0,1-3.13,10.24,62.5,62.5,0,0,1-5.3,9.48q-1.55,2.25-3.21,4.41c-1.13,1.42-2.29,2.83-3.5,4.18L77,76a1.06,1.06,0,0,0,.23,1.48l.09.06h0a24.48,24.48,0,0,1,2.36,1.94,30.46,30.46,0,0,1,2.18,2.22,31.08,31.08,0,0,1,3.64,5A29.07,29.07,0,0,1,88,92.25a28.06,28.06,0,0,1,1.26,5.94,1.75,1.75,0,0,0,1.53,1.55h.14l1.31,0,2.89-2.89Q93.87,96.64,92.58,96.41Z"/><path class="cls-2" d="M58.63,110h0l-.44-.07-.54.27Z"/><path class="cls-2" d="M57.61,75.17a1,1,0,0,1,.4-.47,1.25,1.25,0,0,1,.21-.1h0l-.12,0-.22.08-.43.15c0,.27.06.54.1.81A1,1,0,0,1,57.61,75.17Z"/><path class="cls-2" d="M58.19,112.85h0a1.15,1.15,0,0,0,.94-.21c1.45-1.08,2.95-2.15,4.47-3.18a49.84,49.84,0,0,1,4.68-2.84h0a.46.46,0,0,0-.36-.85,50.3,50.3,0,0,0-5.24,2c-1.53.69-3,1.4-4.54,2.15l.44.07h0l-1,.2.54-.27a26.63,26.63,0,0,1-11.65-4.49A15.82,15.82,0,0,1,42,101,7.28,7.28,0,0,1,41,98.12a5.1,5.1,0,0,1,0-1.46,6.15,6.15,0,0,1,.18-.71l.29-.78a35.41,35.41,0,0,1,6.63-11.46A27.66,27.66,0,0,1,53,79.34a23.53,23.53,0,0,1,2.83-1.63c.49-.24,1-.46,1.49-.65l.75-.26.38-.11.18,0,.09,0h.05a1,1,0,0,0,.29-.13,1,1,0,0,0,.43-.48,1.06,1.06,0,0,0,.1-.51A81.2,81.2,0,0,1,59.24,64a57.58,57.58,0,0,1,1.54-11.29,38.61,38.61,0,0,1,4.15-10.37,28.63,28.63,0,0,1,3.24-4.43A22.8,22.8,0,0,1,70.09,36c.23-.2.46-.38.7-.56-.41-.54-.83-1.06-1.27-1.54h0l2.56.62-.19.12-.26.17-.52.36c-.11.08-.21.18-.32.27a21.37,21.37,0,0,1,1.54,2.26,23.25,23.25,0,0,1,1.15,2.15,22.79,22.79,0,0,1,.92,2.26v0a.47.47,0,0,0,.46.31.46.46,0,0,0,.45-.48,25.12,25.12,0,0,0-.24-2.6c-.13-.86-.3-1.71-.51-2.57a26.42,26.42,0,0,0-1.81-5.06h0a1.89,1.89,0,0,0-2.56-.62l-.43.27-.35.25-.65.5c-.43.34-.83.69-1.21,1a25.93,25.93,0,0,0-2.16,2.3,31.74,31.74,0,0,0-3.46,5.12A42.05,42.05,0,0,0,57.86,52a61.21,61.21,0,0,0-1.17,11.89,83.33,83.33,0,0,0,.75,11l.43-.15.22-.08.12,0h0l.06,0h-.06a1.25,1.25,0,0,0-.21.1,1,1,0,0,0-.4.47,1,1,0,0,0-.07.51c0-.27-.06-.54-.1-.81h0l-.83.35c-.55.24-1.08.51-1.6.79a26.3,26.3,0,0,0-3,1.89,30,30,0,0,0-5.12,4.75,38.05,38.05,0,0,0-4,5.68A42.63,42.63,0,0,0,40,94.62l-.3.81a5.82,5.82,0,0,0-.26.93,6.59,6.59,0,0,0-.09,1.93,8.87,8.87,0,0,0,1.2,3.53,18.52,18.52,0,0,0,4.84,5.24,30.29,30.29,0,0,0,6.06,3.58,31.21,31.21,0,0,0,6.75,2.21Z"/><path class="cls-2" d="M71.63,34.78l.26-.17.19-.12-2.56-.62h0c.44.48.86,1,1.27,1.54.11-.09.21-.19.32-.27Z"/><path class="cls-2" d="M66.83,151.71h0c-.16.43-.31.86-.47,1.28.33.21.67.42,1.06.63Z"/><path class="cls-2" d="M60,146.9a26.33,26.33,0,0,0,3.36,3.72,24.69,24.69,0,0,0,1.93,1.59c.37.28.74.53,1.12.78.16-.42.31-.85.47-1.28h0l.59,1.91c-.39-.21-.73-.42-1.06-.63-.27.76-.54,1.51-.8,2.28-.4,1.18-.77,2.38-1.13,3.58a37.25,37.25,0,0,0-1.53,7.43,7.93,7.93,0,0,0,.6,4,3.18,3.18,0,0,0,1.74,1.56,3.69,3.69,0,0,0,1.12.21c.38,0,.66,0,1,0a11.3,11.3,0,0,0,3.87-.77,8.77,8.77,0,0,0,3.19-2.47c.84-1,1.53-2,2.27-3A34.1,34.1,0,0,1,79,163.08a28,28,0,0,1,2.54-2.45c.21-.17.46-.39.71-.62s.49-.46.72-.7a12.66,12.66,0,0,0,1.25-1.57c.11-.17.19-.34.29-.51a1.92,1.92,0,0,1-.54-1.68A1.9,1.9,0,0,1,86,154a17.84,17.84,0,0,0,.92-3.57,19.1,19.1,0,0,0-.37-7.61.47.47,0,0,0-.92.16v0A18.11,18.11,0,0,1,82,156.14c-.35.43-.72.85-1.1,1.27-.18.21-.37.42-.57.62l-.63.63a31.73,31.73,0,0,0-2.56,2.88A32.38,32.38,0,0,0,75,164.7c-.64,1.07-1.25,2.13-1.92,3.07A8.51,8.51,0,0,1,72,169a5.36,5.36,0,0,1-1.36.9,8.42,8.42,0,0,1-3.32.68,3.8,3.8,0,0,1-1.53-.14,1.68,1.68,0,0,1-.92-.86,6.1,6.1,0,0,1-.3-3.2,20.31,20.31,0,0,1,.72-3.48c.32-1.15.72-2.29,1.16-3.42s.92-2.23,1.44-3.33,1.06-2.2,1.65-3.22h0a1.36,1.36,0,0,0-.37-1.74l-.22-.17c-.23-.17-.55-.41-.82-.64s-.56-.47-.83-.72c-.55-.49-1.09-1-1.61-1.53a30.87,30.87,0,0,1-2.87-3.38c-.4-.55-.78-1.11-1.15-1.68l-2.56,2.55C59.36,146.08,59.65,146.5,60,146.9Z"/><path class="cls-2" d="M57,128.17a47.15,47.15,0,0,1,.52-9.23.48.48,0,0,0-.3-.51.47.47,0,0,0-.6.27,33.05,33.05,0,0,0-2.07,9.45c-.08.81-.06,1.63-.08,2.45s0,1.65.15,2.47a24.56,24.56,0,0,0,.62,3.71l2.62-2.61A31.56,31.56,0,0,1,57,128.17Z"/><path class="cls-2" d="M85.48,157.74c1.32.23,2.53.36,3.78.5s2.47.25,3.7.34,2.47.17,3.69.21l3.67.16a.32.32,0,0,0,.34-.28.33.33,0,0,0-.28-.37,46,46,0,0,1-7.06-1.62c-1.16-.35-2.3-.73-3.43-1.15s-2.26-.88-3.27-1.37a2.09,2.09,0,0,0-.5-.16H86a17.86,17.86,0,0,1-1.56,3.24A1.88,1.88,0,0,0,85.48,157.74Z"/><path class="cls-2" d="M83.93,155.55a1.92,1.92,0,0,0,.54,1.68A17.86,17.86,0,0,0,86,154,1.9,1.9,0,0,0,83.93,155.55Z"/><path class="cls-2" d="M116,161.86h0c-.89.07-1.76.2-2.64.35a26.82,26.82,0,0,0,2.6.67Z"/><path class="cls-2" d="M143.44,135.16a.46.46,0,0,0-.8.47v0a24.46,24.46,0,0,1,2.74,8.05,14.5,14.5,0,0,1-.94,8.12,13.59,13.59,0,0,1-5.37,5.92,27.52,27.52,0,0,1-7.7,3.13,1.47,1.47,0,0,0-.61.31,1.52,1.52,0,0,0-.18,2.14l.16.19h0c1.4,1.09,2.75,3,2.35,4.26a3.22,3.22,0,0,1-1.67,1.75,11.7,11.7,0,0,1-2.86,1,31.79,31.79,0,0,1-6.36.76c-1.08,0-2.17,0-3.27,0s-2.19-.05-3.28-.08c-2.18-.11-4.38-.25-6.47-.54-.51-.07-1-.17-1.48-.28a3.68,3.68,0,0,1-1.12-.43.83.83,0,0,1-.36-.56,3.54,3.54,0,0,1-.08-.57c0-.12,0-.23,0-.35v-.25a1.3,1.3,0,0,1,.37-.73,6.41,6.41,0,0,1,1-.87,17.75,17.75,0,0,1,2.66-1.47c1.92-.87,4-1.61,6-2.35h0a.52.52,0,0,0,.42-.32.52.52,0,0,0-.29-.67l-.09,0a25.36,25.36,0,0,1-8.63-5,11.68,11.68,0,0,1-2.69-3.88,10.87,10.87,0,0,1-.82-4.59,14.65,14.65,0,0,1,1-4.72,20.2,20.2,0,0,1,2.24-4.39,20.91,20.91,0,0,1,3.22-3.81,13,13,0,0,1,4.16-2.7h0a.36.36,0,0,0,.23-.4.37.37,0,0,0-.41-.3,11.9,11.9,0,0,0-4.94,2.25,19.62,19.62,0,0,0-3.86,3.81,18,18,0,0,0-4,10.18,12.45,12.45,0,0,0,4.44,10.09,19.62,19.62,0,0,0,7.15,3.82c.88-.15,1.75-.28,2.64-.35h0l0,1a26.82,26.82,0,0,1-2.6-.67,28,28,0,0,0-4,1,16,16,0,0,0-3.21,1.45,7.38,7.38,0,0,0-1.53,1.22,3.88,3.88,0,0,0-1.06,2.16,2,2,0,0,0,0,.34v.23c0,.15,0,.31,0,.47a6.1,6.1,0,0,0,.16,1,3.47,3.47,0,0,0,.54,1.16,3,3,0,0,0,1,.88,5.47,5.47,0,0,0,2,.68A13.79,13.79,0,0,0,109,173c2.28.09,4.47-.05,6.67-.11s4.37-.08,6.59-.08c1.11,0,2.23-.05,3.34-.14a29.62,29.62,0,0,0,3.36-.41,15.35,15.35,0,0,0,3.37-1,7.48,7.48,0,0,0,1.63-1,4.43,4.43,0,0,0,1.28-1.73,4.5,4.5,0,0,0,.27-2.19,7,7,0,0,0-.54-2,11.56,11.56,0,0,0-.67-1.26c-.67.26-1.35.5-2,.72l.62-2.64h0a12.46,12.46,0,0,1,1.16,1.51l.25.41a28.16,28.16,0,0,0,6.24-3.27,16,16,0,0,0,5.81-7.28,16.32,16.32,0,0,0,.51-9.14A25.57,25.57,0,0,0,143.44,135.16Z"/><path class="cls-2" d="M132.87,161.23h0l-.62,2.64c.68-.22,1.36-.46,2-.72l-.25-.41A12.46,12.46,0,0,0,132.87,161.23Z"/><path class="cls-2" d="M60.06,91.83a3.13,3.13,0,1,0,3.83-2.21A3.13,3.13,0,0,0,60.06,91.83Z"/><path class="cls-2" d="M102,98.51l65.15-65.15c-.7-.71-1.42-1.41-2.15-2.09L98.6,97.66C99.73,97.93,100.86,98.21,102,98.51Z"/><path class="cls-2" d="M60.11,140.39l39.8-39.79-2-.33-1.73-.2L58.83,137.43A28.72,28.72,0,0,0,60.11,140.39Z"/><path class="cls-2" d="M56.21,140.05,31.27,165c.68.73,1.38,1.45,2.09,2.15L57.51,143A26.53,26.53,0,0,1,56.21,140.05Z"/><path class="cls-2" d="M96.19,100.07l1.73.2,2,.33L102,98.51c-1.13-.3-2.26-.58-3.39-.85Z"/><path class="cls-2" d="M58.83,137.43l-2.62,2.62a26.53,26.53,0,0,0,1.3,2.94l2.6-2.6A28.72,28.72,0,0,1,58.83,137.43Z"/><path class="cls-2" d="M169.6,35.15l-.38.38A94.59,94.59,0,0,1,35.53,169.22l-.93.93-.82.82A97.06,97.06,0,0,0,171,33.78Z"/><path class="cls-2" d="M29.24,162.78A94.59,94.59,0,0,1,162.78,29.24l.45-.45,1.3-1.3a97.06,97.06,0,0,0-137,137l.74-.74Z"/><path class="cls-2" d="M167.14,33.36l.34-.33-2.13-2.12-.36.36C165.72,32,166.44,32.65,167.14,33.36Z"/><path class="cls-2" d="M31.27,165l-.92.92L32.48,168l.88-.89C32.65,166.44,32,165.72,31.27,165Z"/><path class="cls-2" d="M162.78,29.24c.75.66,1.49,1.34,2.21,2l.36-.36L167.48,33l-.34.33c.71.71,1.4,1.44,2.08,2.17l.38-.38L171,33.78q-3.08-3.3-6.44-6.29l-1.3,1.3Z"/><path class="cls-2" d="M35.53,169.22c-.73-.68-1.46-1.37-2.17-2.08l-.88.89-2.13-2.12.92-.92c-.69-.72-1.37-1.46-2-2.21l-1,1-.74.74q3,3.36,6.29,6.44l.82-.82Z"/></g></svg>