<svg id="圖層_2" data-name="圖層 2" xmlns="http://www.w3.org/2000/svg" viewBox="0 0 200 200"><defs><style>.cls-1{fill:#6b8c83;}</style></defs><path class="cls-1" d="M129.75,199.22c-4.81-4.13-9.38-8.43-13.86-12.86s-8.84-9-13.09-13.61-8.38-9.43-12.38-14.32-7.86-9.94-11.57-15.1a197.41,197.41,0,0,1-19.24-33c-2.65-5.74-5.07-11.49-7.49-17.2S47.26,81.72,44.89,76h0a3,3,0,0,1,5.22-2.89c7.38,10.29,13.33,21.58,19.17,32.42a341.83,341.83,0,0,0,18.91,31.36q5.16,7.6,10.68,15c3.65,5,7.41,9.87,11.21,14.76s7.65,9.76,11.51,14.63l11.66,14.54,0,0a2.46,2.46,0,0,1-3.52,3.41Z"/><path class="cls-1" d="M82.55,148.6a6.5,6.5,0,0,1-.66.17l-.5.1-.94.16c-.61.09-1.2.18-1.78.24-1.17.14-2.3.21-3.43.29a61.87,61.87,0,0,1-6.67,0A67.07,67.07,0,0,1,32.92,137.4a83.59,83.59,0,0,1-9.47-7.74,103.52,103.52,0,0,1-8.18-8.87c-1.27-1.56-2.45-3.13-3.67-4.76a48,48,0,0,1-3.35-5.2A58.5,58.5,0,0,1,3.4,99.51a84.13,84.13,0,0,1-3.32-24A175.8,175.8,0,0,1,1.7,51.77C2.68,44,3.94,36.33,5,28.87c.53-3.72,1-7.4,1.24-11A53.36,53.36,0,0,0,6.16,7.76l.31,1.4A6.81,6.81,0,0,1,7,3.53,6.73,6.73,0,0,1,10,.78,6.51,6.51,0,0,1,11.92.15,7.06,7.06,0,0,1,13,.05a5.87,5.87,0,0,1,.61,0l.42,0,.42.06.23.05c.23.05.55.14.71.19l.43.14c.49.18.8.32,1.08.45.57.26,1,.48,1.41.71.81.44,1.56.86,2.27,1.29,1.43.85,2.8,1.68,4.12,2.57C27.39,7.32,30,9.09,32.5,10.93c5.08,3.64,10,7.46,14.86,11.29L62,33.64A115.54,115.54,0,0,1,76.43,46.52,98.22,98.22,0,0,1,88.27,61.83,88.26,88.26,0,0,1,96.59,79.3a84.2,84.2,0,0,1,4.14,18.83,75.56,75.56,0,0,1,.36,9.63c0,1.61-.13,3.22-.28,4.83-.08.81-.17,1.61-.28,2.42s-.23,1.58-.43,2.52a2.73,2.73,0,0,1-5.36-1v-.11c.09-.58.18-1.37.24-2.07s.11-1.46.15-2.19c.07-1.47.07-3,0-4.42a71,71,0,0,0-.78-8.85,77.45,77.45,0,0,0-4.65-17.07,81.08,81.08,0,0,0-8.36-15.51A89.75,89.75,0,0,0,69.92,52.94,107,107,0,0,0,56.16,41.81c-5.11-3.4-10.31-6.75-15.52-10L25,22l-7.7-4.85-3.74-2.31c-.61-.37-1.21-.71-1.75-1-.26-.14-.52-.28-.66-.34s-.11,0,0,0l.15.05c.07,0,.29.09.44.12l.15,0,.35,0,.35,0h.54a6.2,6.2,0,0,0,1.05-.09,6.55,6.55,0,0,0,1.87-.61A6.63,6.63,0,0,0,19,10.4a6.69,6.69,0,0,0,.56-5.56l.31,1.4a60.16,60.16,0,0,1-.29,12.94c-.47,4.11-1.22,8.05-2,11.91-1.65,7.72-3.67,15.13-5.36,22.53A152.78,152.78,0,0,0,8.38,75.78a62.7,62.7,0,0,0,1.67,21.77,43.55,43.55,0,0,0,4.1,10A41.15,41.15,0,0,0,17.08,112c.52.73,1.16,1.44,1.73,2.16s1.16,1.46,1.79,2.13A76.83,76.83,0,0,0,28.47,124a61.26,61.26,0,0,0,9,6.17,46.18,46.18,0,0,0,20.11,6,40.75,40.75,0,0,0,10.2-.69,37.33,37.33,0,0,0,4.81-1.29,23.54,23.54,0,0,0,2.23-.89c.36-.16.7-.33,1-.49l.44-.26.19-.12s.15-.1,0-.07a8.66,8.66,0,0,1,6.1,16.2Z"/><path class="cls-1" d="M128.41,167.35c.28-1.36.55-2.73.85-4.1s.65-2.73,1.05-4.08c.75-2.71,1.65-5.39,2.68-8a73.13,73.13,0,0,1,3.6-7.81c.7-1.28,1.42-2.55,2.24-3.8.39-.63.82-1.24,1.26-1.87.24-.31.45-.62.71-.94s.45-.59.86-1l.1-.11a3.85,3.85,0,0,1,2.83-1.26h0a9,9,0,0,1,1.93.13c.25,0,.47.08.67.13l.59.14c.76.2,1.42.4,2.05.6l3.64,1.14a50.32,50.32,0,0,0,7,1.65c4.6.72,9.22.56,13.24-1.18a19.76,19.76,0,0,0,5.53-3.57,25.89,25.89,0,0,0,4.3-5.34,45.36,45.36,0,0,0,5.22-13.43C191,105,191.35,94.79,191,84.74l-.86-15.39c-.28-5.17-.47-10.34-.84-15.48h0l5.55,4.78c-.89.14-2,.36-3,.57s-2.07.46-3.1.71q-3.1.76-6.16,1.68a114.59,114.59,0,0,0-12,4.32,76.21,76.21,0,0,0-21.37,13.12,45.42,45.42,0,0,0-7.93,9.34,36.48,36.48,0,0,0-4.66,11.18,41,41,0,0,0-.87,6.06,45.74,45.74,0,0,0,.1,6.19,56.46,56.46,0,0,0,2.6,12.33v0a2.57,2.57,0,0,1-4.85,1.68,62,62,0,0,1-3.4-13.42,49.88,49.88,0,0,1-.39-7,46.81,46.81,0,0,1,.72-7.08,43,43,0,0,1,4.94-13.38,52.18,52.18,0,0,1,8.71-11.17,83.89,83.89,0,0,1,23-15.47,124.75,124.75,0,0,1,12.71-5.16c2.16-.74,4.34-1.44,6.54-2.07,1.1-.31,2.21-.62,3.33-.9s2.19-.55,3.47-.82l.21,0a4.47,4.47,0,0,1,5.27,3.47,4.75,4.75,0,0,1,.07,1.35h0c-.64,5.08-1.07,10.15-1.32,15.2s-.28,10.14-.33,15.3c-.06,10.38-.62,20.82-2.9,31.19A56,56,0,0,1,188.56,131a31.29,31.29,0,0,1-5.08,6.75,26.31,26.31,0,0,1-7,5.11,29.15,29.15,0,0,1-8.32,2.56,39,39,0,0,1-8.48.3,70.6,70.6,0,0,1-8.12-1l-3.81-.7c-.6-.1-1.19-.2-1.69-.25l-.35,0h-.27c-.18,0-.2,0,0,0h0l2.93-1.37c-.06,0-.32.29-.5.46l-.6.62c-.4.44-.81.88-1.2,1.36-.79.93-1.55,1.94-2.28,3a66.82,66.82,0,0,0-4.06,6.49c-1.22,2.28-2.36,4.62-3.37,7-.53,1.2-1,2.43-1.45,3.65s-.85,2.49-1.29,3.74l0,.13a2.67,2.67,0,0,1-5.14-1.43Z"/><path class="cls-1" d="M171.24,88.36c-1.94,2.73-4,5.26-5.78,8s-3.63,5.44-5.3,8.28-3.34,5.69-4.92,8.61l-4.69,8.85-.06.1a2.15,2.15,0,0,1-4-1.28,48.16,48.16,0,0,1,2.64-10.41,63.29,63.29,0,0,1,4.49-9.72A54.09,54.09,0,0,1,159.76,92a40.29,40.29,0,0,1,8-7.31,2.57,2.57,0,0,1,3.57,3.59Z"/><path class="cls-1" d="M143.83,45.25a26.67,26.67,0,0,1-6.42,17.47,24.46,24.46,0,0,1-7.62,5.92,23,23,0,0,1-19.3.49,24.34,24.34,0,0,1-8.12-5.76A26.3,26.3,0,0,1,97.12,55a27.09,27.09,0,0,1,0-19.42,26.3,26.3,0,0,1,5.25-8.41,24.34,24.34,0,0,1,8.12-5.76,23,23,0,0,1,19.3.49,24.46,24.46,0,0,1,7.62,5.92A26.67,26.67,0,0,1,143.83,45.25Zm-5.66,0A21.06,21.06,0,0,0,136.8,38a19.07,19.07,0,0,0-3.88-6.17,17.58,17.58,0,0,0-5.84-4.08,16.13,16.13,0,0,0-6.83-1.23,16.56,16.56,0,0,0-12,6,20,20,0,0,0,0,25.54,16.56,16.56,0,0,0,12,6,16.13,16.13,0,0,0,6.83-1.23,17.58,17.58,0,0,0,5.84-4.08,19.07,19.07,0,0,0,3.88-6.17A21.06,21.06,0,0,0,138.17,45.25Z"/><path class="cls-1" d="M179.94,22.5A14.53,14.53,0,0,1,178.8,28a13.92,13.92,0,0,1-13.3,8.44,14,14,0,0,1,0-27.9A13.92,13.92,0,0,1,178.8,17,14.53,14.53,0,0,1,179.94,22.5Zm-6.88,0a8.08,8.08,0,0,0-7.56-8,8.08,8.08,0,0,0-5.94,14,8.18,8.18,0,0,0,5.94,2.11,8.08,8.08,0,0,0,7.56-8Z"/></svg>