<svg xmlns="http://www.w3.org/2000/svg" viewBox="0 0 200 200"><defs><style>.cls-1{fill:#6b8c83;}</style></defs><g id="圖層_7" data-name="圖層 7"><path class="cls-1" d="M63,98.09a59.48,59.48,0,0,1,9,5.66,81,81,0,0,1,7.89,7,104.5,104.5,0,0,1,7,7.88A96.18,96.18,0,0,1,93,127.3H87.79c5.64-9.65,11.78-18.74,18.25-27.7s13.24-17.63,20.39-26c3.51-4.24,7.26-8.29,10.91-12.4l5.68-6,2.85-3,2.94-2.91,5.88-5.79,6.07-5.6c1-.92,2-1.87,3.05-2.78L167,32.45l6.29-5.35a1.18,1.18,0,0,1,1.56,1.76l0,0-6,5.52-3,2.76c-1,.94-1.95,1.92-2.93,2.87l-5.83,5.74-5.65,5.92-2.81,3-2.73,3-5.44,6.11c-3.5,4.19-7.07,8.3-10.42,12.61-6.8,8.52-13.32,17.26-19.48,26.25-1.55,2.24-3,4.51-4.57,6.77l-4.43,6.86c-2.88,4.59-5.77,9.25-8.38,13.91a3,3,0,0,1-4.09,1.15,3,3,0,0,1-1.11-1.09l0,0h0a93.5,93.5,0,0,0-5.18-8.48,100.08,100.08,0,0,0-6.08-8,76.13,76.13,0,0,0-7-7.19,56.94,56.94,0,0,0-8-6l-.05,0A1.44,1.44,0,0,1,63,98.09Z"/><path class="cls-1" d="M169.62,46.43a80.23,80.23,0,0,1,15.26,29.22,88.93,88.93,0,1,1-60.62-60.41,84.83,84.83,0,0,1,15.4,6.1,74.61,74.61,0,0,1,13.85,9,1.3,1.3,0,0,1-1.58,2.07h0a112.9,112.9,0,0,0-13.69-8.27,82.6,82.6,0,0,0-14.88-5.74,85.39,85.39,0,0,0-31.61-2.71A84.24,84.24,0,0,0,61.41,24.8,85.15,85.15,0,0,0,20.6,71.58a84.66,84.66,0,0,0,2.17,61.91,85.19,85.19,0,0,0,17.73,26,84.44,84.44,0,0,0,87.95,19.81,84.61,84.61,0,0,0,53-102.71A94.54,94.54,0,0,0,167.5,48.07h0a1.34,1.34,0,0,1,2.13-1.63Z"/></g></svg>